<svg xmlns="http://www.w3.org/2000/svg" xmlns:xlink="http://www.w3.org/1999/xlink" viewBox="0,0,256,256" width="40px" height="40px"><g fill="#1c3f60" fill-rule="nonzero" stroke="none" stroke-width="1" stroke-linecap="butt" stroke-linejoin="miter" stroke-miterlimit="10" stroke-dasharray="" stroke-dashoffset="0" font-family="none" font-weight="none" font-size="none" text-anchor="none" style="mix-blend-mode: normal"><g transform="scale(5.12,5.12)"><path d="M25,2c-4.40644,0 -8,3.59356 -8,8c0,2.5463 1.16043,4.39967 2.19336,5.80859c1.03293,1.40892 1.80664,2.4126 1.80664,3.19141v2c0,1.37066 0.94553,2.52898 2.21094,2.88086c0.32619,0.66133 1.00146,1.11914 1.78906,1.11914c0.7876,0 1.46287,-0.45781 1.78906,-1.11914c1.26541,-0.35188 2.21094,-1.5102 2.21094,-2.88086v-2c0,-0.74719 0.77516,-1.76036 1.80859,-3.17578c1.03344,-1.41542 2.19141,-3.27792 2.19141,-5.82422c0,-4.40644 -3.59356,-8 -8,-8zM25,4c3.32556,0 6,2.67444 6,6c0,1.9537 -0.84203,3.32071 -1.80859,4.64453c-0.7754,1.06201 -1.7067,2.07218 -2.04883,3.35547h-4.2832c-0.34072,-1.29669 -1.27531,-2.3146 -2.05273,-3.375c-0.96707,-1.31908 -1.80664,-2.6713 -1.80664,-4.625c0,-3.32556 2.67444,-6 6,-6zM23,20h4v1c0,0.56503 -0.43497,1 -1,1h-2c-0.56503,0 -1,-0.43497 -1,-1zM14.03125,23c-2.16575,0 -3.92099,0.5422 -5.15625,1.57617c-1.23526,1.03398 -1.875,2.5524 -1.875,4.17383c0,0.62798 0.14472,1.26736 0.27734,1.81445c0.06078,0.25072 0.07485,0.27705 0.12305,0.44922c-0.2231,0.3568 -0.40039,0.84889 -0.40039,1.48633c0,0.79167 0.21352,1.47133 0.66797,1.92578c0.20354,0.20354 0.42306,0.16925 0.65234,0.25781c0.13165,0.53191 0.26619,1.07332 0.5,1.51172c0.1613,0.30244 0.33397,0.57436 0.51758,0.81055c0.04222,0.05431 0.12058,0.09517 0.16211,0.14648v1.55078c-0.13795,0.29796 -0.42253,0.58676 -1.01758,0.90234c-0.6338,0.33613 -1.50434,0.6568 -2.41016,1.07617c-0.90582,0.41937 -1.8628,0.94436 -2.64258,1.7832c-0.77977,0.83884 -1.33764,2.00877 -1.42773,3.47461c-0.01666,0.2752 0.08102,0.54506 0.26996,0.74584c0.18894,0.20078 0.45239,0.31465 0.72809,0.31471h21h3h20c0.2757,-0.00006 0.53914,-0.11393 0.72809,-0.31471c0.18894,-0.20078 0.28662,-0.47064 0.26996,-0.74584c-0.09211,-1.49867 -0.74844,-2.69347 -1.63281,-3.52344c-0.88437,-0.82997 -1.95579,-1.33908 -2.98242,-1.75391c-1.02663,-0.41483 -2.02322,-0.73788 -2.75195,-1.08008c-0.6881,-0.32311 -1.00679,-0.62645 -1.13086,-0.88477v-1.54687c0.04144,-0.05129 0.11994,-0.09219 0.16211,-0.14648c0.18335,-0.23607 0.35439,-0.50626 0.51563,-0.80859c0.23375,-0.43829 0.37003,-0.97997 0.50195,-1.51172c0.22929,-0.08856 0.4488,-0.05427 0.65234,-0.25781c0.45445,-0.45445 0.66797,-1.13411 0.66797,-1.92578c0,-0.63744 -0.17729,-1.12953 -0.40039,-1.48633c0.0482,-0.17216 0.06227,-0.1985 0.12305,-0.44922c0.13263,-0.54709 0.27734,-1.18648 0.27734,-1.81445c0,-1.05614 -0.27127,-2.19276 -0.97852,-3.13281c-0.59033,-0.78465 -1.58068,-1.28929 -2.73828,-1.4668l-0.39258,-0.66016c-0.17991,-0.30358 -0.50649,-0.48988 -0.85937,-0.49023c-2.16575,0 -3.92099,0.5422 -5.15625,1.57617c-1.23526,1.03398 -1.875,2.5524 -1.875,4.17383c0,0.62798 0.14472,1.26736 0.27734,1.81445c0.06078,0.25072 0.07484,0.27705 0.12305,0.44922c-0.2231,0.3568 -0.40039,0.84889 -0.40039,1.48633c0,0.79167 0.21352,1.47133 0.66797,1.92578c0.20355,0.20354 0.42306,0.16925 0.65234,0.25781c0.13165,0.53191 0.26619,1.07332 0.5,1.51172c0.1613,0.30244 0.33397,0.57436 0.51758,0.81055c0.04222,0.05431 0.12058,0.09517 0.16211,0.14648v1.55078c-0.13795,0.29796 -0.42253,0.58676 -1.01758,0.90234c-0.6338,0.33613 -1.50434,0.6568 -2.41016,1.07617c-0.90582,0.41937 -1.86281,0.94436 -2.64258,1.7832c-0.77977,0.83884 -1.33764,2.00877 -1.42773,3.47461c-0.00081,0.01041 -0.00147,0.02082 -0.00195,0.03125c-0.00049,-0.01043 -0.00114,-0.02084 -0.00195,-0.03125c-0.09211,-1.49867 -0.74844,-2.69347 -1.63281,-3.52344c-0.88437,-0.82997 -1.95579,-1.33908 -2.98242,-1.75391c-1.02663,-0.41483 -2.02322,-0.73788 -2.75195,-1.08008c-0.6881,-0.32311 -1.00679,-0.62645 -1.13086,-0.88477v-1.54687c0.04144,-0.05129 0.11994,-0.09219 0.16211,-0.14648c0.18335,-0.23607 0.35439,-0.50626 0.51563,-0.80859c0.23375,-0.43829 0.37003,-0.97997 0.50195,-1.51172c0.22929,-0.08856 0.4488,-0.05427 0.65234,-0.25781c0.45445,-0.45445 0.66797,-1.13411 0.66797,-1.92578c0,-0.63744 -0.17729,-1.12953 -0.40039,-1.48633c0.0482,-0.17216 0.06227,-0.1985 0.12305,-0.44922c0.13263,-0.54709 0.27734,-1.18648 0.27734,-1.81445c0,-1.05614 -0.27127,-2.19276 -0.97852,-3.13281c-0.59033,-0.78465 -1.58068,-1.28929 -2.73828,-1.4668l-0.39258,-0.66016c-0.17991,-0.30358 -0.50649,-0.48988 -0.85937,-0.49023zM13.50391,25.07031l0.26172,0.43945c0.17991,0.30358 0.50649,0.48988 0.85938,0.49023c0.93697,0 1.42262,0.32286 1.79688,0.82031c0.37425,0.49745 0.57813,1.23583 0.57813,1.92969c0,0.24702 -0.10528,0.85764 -0.22266,1.3418c-0.11737,0.48416 -0.23242,0.86328 -0.23242,0.86328c-0.12626,0.41138 0.02477,0.8574 0.375,1.10742c0.01306,0.01931 0.08008,0.11008 0.08008,0.4375c0,0.45833 -0.09898,0.52867 -0.08203,0.51172c0.01695,-0.01695 0.04036,-0.01172 -0.04297,-0.01172c-0.50999,-0.00003 -0.93832,0.3837 -0.99414,0.89063c-0.04158,0.37785 -0.23702,0.93244 -0.4668,1.36328c-0.11489,0.21542 -0.23835,0.40282 -0.33203,0.52344c-0.09368,0.12062 -0.20791,0.16869 -0.03906,0.08203c-0.33373,0.17151 -0.54339,0.5154 -0.54297,0.89063v2.25c0.00035,0.12154 0.02285,0.242 0.06641,0.35547c0.39682,1.04082 1.30284,1.60977 2.21289,2.03711c0.91005,0.42734 1.91852,0.74525 2.85352,1.12305c0.93499,0.3778 1.78062,0.81256 2.36328,1.35938c0.33966,0.31876 0.5766,0.69224 0.75,1.125h-18.32227c0.15558,-0.38452 0.20809,-0.89133 0.4707,-1.17383c0.49991,-0.53778 1.21165,-0.95695 2.01758,-1.33008c0.80593,-0.37313 1.69042,-0.6915 2.50781,-1.125c0.81739,-0.4335 1.63706,-1.02645 2.01367,-2.01562c0.04355,-0.11347 0.06605,-0.23393 0.06641,-0.35547v-2.25c0.00004,-0.37566 -0.21043,-0.71965 -0.54492,-0.89062c0.16865,0.08635 0.05461,0.03847 -0.03906,-0.08203c-0.09367,-0.1205 -0.21525,-0.30813 -0.33008,-0.52344c-0.22966,-0.43062 -0.42559,-0.98584 -0.4668,-1.36328c-0.05583,-0.50693 -0.48415,-0.89065 -0.99414,-0.89062c-0.08333,0 -0.05992,-0.0052 -0.04297,0.01172c0.01695,0.01695 -0.08203,-0.05339 -0.08203,-0.51172c0,-0.32742 0.06702,-0.41819 0.08008,-0.4375c0.35023,-0.25002 0.50126,-0.69605 0.375,-1.10742c0,0 -0.11505,-0.37912 -0.23242,-0.86328c-0.11737,-0.48416 -0.22266,-1.09477 -0.22266,-1.3418c0,-1.12858 0.37746,-1.98515 1.1582,-2.63867c0.69239,-0.57957 1.83461,-0.95224 3.3457,-1.04102zM36.50391,25.07031l0.26172,0.43945c0.17991,0.30358 0.50649,0.48988 0.85938,0.49023c0.93697,0 1.42262,0.32286 1.79688,0.82031c0.37425,0.49745 0.57813,1.23583 0.57813,1.92969c0,0.24702 -0.10529,0.85764 -0.22266,1.3418c-0.11737,0.48416 -0.23242,0.86328 -0.23242,0.86328c-0.12626,0.41138 0.02477,0.8574 0.375,1.10742c0.01306,0.01931 0.08008,0.11008 0.08008,0.4375c0,0.45833 -0.09898,0.52867 -0.08203,0.51172c0.01695,-0.01695 0.04036,-0.01172 -0.04297,-0.01172c-0.50999,-0.00003 -0.93832,0.3837 -0.99414,0.89063c-0.04158,0.37785 -0.23702,0.93244 -0.4668,1.36328c-0.11489,0.21542 -0.23835,0.40282 -0.33203,0.52344c-0.09368,0.12062 -0.20791,0.16869 -0.03906,0.08203c-0.33373,0.17151 -0.54339,0.5154 -0.54297,0.89063v2.25c0.00035,0.12154 0.02285,0.242 0.06641,0.35547c0.39682,1.04082 1.30284,1.60977 2.21289,2.03711c0.91005,0.42734 1.91853,0.74525 2.85352,1.12305c0.93499,0.3778 1.78062,0.81256 2.36328,1.35938c0.33966,0.31876 0.5766,0.69224 0.75,1.125h-18.32227c0.15558,-0.38452 0.20809,-0.89133 0.4707,-1.17383c0.49991,-0.53778 1.21165,-0.95695 2.01758,-1.33008c0.80593,-0.37313 1.69042,-0.6915 2.50781,-1.125c0.81739,-0.4335 1.63706,-1.02645 2.01367,-2.01562c0.04355,-0.11347 0.06605,-0.23393 0.06641,-0.35547v-2.25c0.00004,-0.37566 -0.21043,-0.71965 -0.54492,-0.89062c0.16865,0.08635 0.05461,0.03847 -0.03906,-0.08203c-0.09367,-0.1205 -0.21525,-0.30813 -0.33008,-0.52344c-0.22966,-0.43062 -0.42559,-0.98584 -0.4668,-1.36328c-0.05583,-0.50693 -0.48415,-0.89065 -0.99414,-0.89062c-0.08333,0 -0.05992,-0.0052 -0.04297,0.01172c0.01695,0.01695 -0.08203,-0.05339 -0.08203,-0.51172c0,-0.32742 0.06702,-0.41819 0.08008,-0.4375c0.35023,-0.25002 0.50126,-0.69605 0.375,-1.10742c0,0 -0.11505,-0.37912 -0.23242,-0.86328c-0.11737,-0.48416 -0.22266,-1.09477 -0.22266,-1.3418c0,-1.12858 0.37746,-1.98515 1.1582,-2.63867c0.69239,-0.57957 1.83461,-0.95224 3.3457,-1.04102z"></path></g></g></svg>