<svg xmlns="http://www.w3.org/2000/svg" xmlns:xlink="http://www.w3.org/1999/xlink" viewBox="0,0,256,256" width="40px" height="40px"><g fill="#1c3f60" fill-rule="nonzero" stroke="none" stroke-width="1" stroke-linecap="butt" stroke-linejoin="miter" stroke-miterlimit="10" stroke-dasharray="" stroke-dashoffset="0" font-family="none" font-weight="none" font-size="none" text-anchor="none" style="mix-blend-mode: normal"><g transform="scale(10.66667,10.66667)"><path d="M8,2l-6,6l5,5l-4,4v4h4l4,-4l5,5l6,-6l-5,-5l4.70703,-4.70703c0.391,-0.391 0.391,-1.02406 0,-1.41406l-2.58594,-2.58594c-0.195,-0.195 -0.45103,-0.29297 -0.70703,-0.29297c-0.256,0 -0.51203,0.09797 -0.70703,0.29297l-4.70703,4.70703zM18.41406,4.41406l1.17188,1.17188l-1.29297,1.29297l-1.17187,-1.17187zM8,4.82813l3.58594,3.58594l-3.17188,3.17188l-3.58594,-3.58594zM15.70703,7.12109l1.17188,1.17188l-10.70703,10.70703h-1.17187v-1.17187zM15.58594,12.41406l3.58594,3.58594l-3.17187,3.17188l-3.58594,-3.58594z"></path></g></g></svg>