<?xml version="1.0" encoding="UTF-8"?>
<!DOCTYPE svg PUBLIC "-//W3C//DTD SVG 1.1//EN" "http://www.w3.org/Graphics/SVG/1.1/DTD/svg11.dtd">
<svg xmlns="http://www.w3.org/2000/svg" version="1.1" width="263px" height="232px" style="shape-rendering:geometricPrecision; text-rendering:geometricPrecision; image-rendering:optimizeQuality; fill-rule:evenodd; clip-rule:evenodd" xmlns:xlink="http://www.w3.org/1999/xlink">
<g><path style="opacity:0.032" fill="#eeeeee" d="M 147.5,7.5 C 143.481,7.6458 139.481,7.97913 135.5,8.5C 139.402,6.51064 143.402,6.17731 147.5,7.5 Z"/></g>
<g><path style="opacity:0.267" fill="#dbdbdb" d="M 147.5,7.5 C 149.167,7.5 150.833,7.5 152.5,7.5C 152.378,10.2921 151.044,12.2921 148.5,13.5C 148.859,11.629 149.859,10.129 151.5,9C 149.942,8.78997 148.609,8.28997 147.5,7.5 Z"/></g>
<g><path style="opacity:1" fill="#151515" d="M 147.5,7.5 C 148.609,8.28997 149.942,8.78997 151.5,9C 149.859,10.129 148.859,11.629 148.5,13.5C 147.094,13.9731 146.427,14.9731 146.5,16.5C 146.672,17.4916 146.338,18.1583 145.5,18.5C 144.094,18.9731 143.427,19.9731 143.5,21.5C 143.672,22.4916 143.338,23.1583 142.5,23.5C 141.069,24.7804 140.402,26.4471 140.5,28.5C 138.272,32.076 137.272,36.076 137.5,40.5C 137.5,44.1667 137.5,47.8333 137.5,51.5C 137.068,54.8774 137.735,57.8774 139.5,60.5C 139.5,60.8333 139.5,61.1667 139.5,61.5C 139.402,63.5529 140.069,65.2196 141.5,66.5C 142.674,67.5137 143.34,68.847 143.5,70.5C 143.427,72.0269 144.094,73.0269 145.5,73.5C 146.338,73.8417 146.672,74.5084 146.5,75.5C 146.738,77.4044 147.738,78.7377 149.5,79.5C 147.777,80.8001 145.61,81.4668 143,81.5C 138.405,81.354 133.905,80.6874 129.5,79.5C 127.847,79.3404 126.514,78.6737 125.5,77.5C 125.027,76.0937 124.027,75.427 122.5,75.5C 121.415,73.4131 119.749,72.0798 117.5,71.5C 116.5,71.1667 115.833,70.5 115.5,69.5C 115.573,67.9731 114.906,66.9731 113.5,66.5C 113.573,64.9731 112.906,63.9731 111.5,63.5C 109.707,61.5739 108.707,59.2406 108.5,56.5C 106.935,47.7469 107.269,39.0802 109.5,30.5C 110.674,29.4863 111.34,28.153 111.5,26.5C 112.906,26.0269 113.573,25.0269 113.5,23.5C 117.167,20.5 120.5,17.1667 123.5,13.5C 125.181,11.9925 127.181,10.9925 129.5,10.5C 131.553,10.5979 133.22,9.93127 134.5,8.5C 134.833,8.5 135.167,8.5 135.5,8.5C 139.481,7.97913 143.481,7.6458 147.5,7.5 Z"/></g>
<g><path style="opacity:0.431" fill="#d4d4d4" d="M 134.5,8.5 C 133.22,9.93127 131.553,10.5979 129.5,10.5C 130.78,9.06873 132.447,8.40206 134.5,8.5 Z"/></g>
<g><path style="opacity:0.031" fill="#dbdbdb" d="M 148.5,13.5 C 148.573,15.0269 147.906,16.0269 146.5,16.5C 146.427,14.9731 147.094,13.9731 148.5,13.5 Z"/></g>
<g><path style="opacity:0.792" fill="#a2a2a2" d="M 123.5,13.5 C 120.5,17.1667 117.167,20.5 113.5,23.5C 115.833,19.1667 119.167,15.8333 123.5,13.5 Z"/></g>
<g><path style="opacity:0.02" fill="#e2e2e2" d="M 145.5,18.5 C 145.573,20.0269 144.906,21.0269 143.5,21.5C 143.427,19.9731 144.094,18.9731 145.5,18.5 Z"/></g>
<g><path style="opacity:0.576" fill="#c9c9c9" d="M 104.5,26.5 C 104.631,25.7611 104.464,25.0944 104,24.5C 101.297,27.3714 98.4639,30.0381 95.5,32.5C 98.1239,27.8761 101.791,24.2094 106.5,21.5C 106.833,21.8333 107.167,22.1667 107.5,22.5C 106.479,23.9014 105.479,25.2347 104.5,26.5 Z"/></g>
<g><path style="opacity:0.51" fill="#c0c0c0" d="M 113.5,23.5 C 113.573,25.0269 112.906,26.0269 111.5,26.5C 111.427,24.9731 112.094,23.9731 113.5,23.5 Z"/></g>
<g><path style="opacity:0.388" fill="#d0d0d0" d="M 142.5,23.5 C 142.598,25.5529 141.931,27.2196 140.5,28.5C 140.402,26.4471 141.069,24.7804 142.5,23.5 Z"/></g>
<g><path style="opacity:0.169" fill="#dcdcdc" d="M 111.5,26.5 C 111.34,28.153 110.674,29.4863 109.5,30.5C 109.229,28.6203 109.896,27.287 111.5,26.5 Z"/></g>
<g><path style="opacity:0.4" fill="#d4d4d4" d="M 103.5,28.5 C 102.87,32.0477 101.87,35.3811 100.5,38.5C 100.32,34.7144 101.32,31.381 103.5,28.5 Z"/></g>
<g><path style="opacity:0.627" fill="#c4c4c4" d="M 140.5,28.5 C 139.787,32.687 138.787,36.687 137.5,40.5C 137.272,36.076 138.272,32.076 140.5,28.5 Z"/></g>
<g><path style="opacity:1" fill="#181818" d="M 104.5,26.5 C 104.672,27.4916 104.338,28.1583 103.5,28.5C 101.32,31.381 100.32,34.7144 100.5,38.5C 99.9283,47.3777 100.928,56.0443 103.5,64.5C 103.229,66.3797 103.896,67.713 105.5,68.5C 106.338,68.8417 106.672,69.5084 106.5,70.5C 106.427,72.0269 107.094,73.0269 108.5,73.5C 110.167,77.1667 112.833,79.8333 116.5,81.5C 117.167,81.5 117.5,81.8333 117.5,82.5C 117.973,83.9063 118.973,84.573 120.5,84.5C 121.492,84.3284 122.158,84.6618 122.5,85.5C 123.911,87.539 125.911,88.539 128.5,88.5C 130.277,89.6005 132.277,90.4338 134.5,91C 140.349,91.8184 146.015,91.6517 151.5,90.5C 151.833,90.5 152.167,90.5 152.5,90.5C 155.228,90.8294 157.562,90.1628 159.5,88.5C 161.553,88.5979 163.22,87.9313 164.5,86.5C 165.492,86.3284 166.158,86.6618 166.5,87.5C 163.833,89.5 161.5,91.8333 159.5,94.5C 159.5,95.1667 159.167,95.5 158.5,95.5C 156.973,95.427 155.973,96.0937 155.5,97.5C 153.973,97.427 152.973,98.0937 152.5,99.5C 151.07,100.537 149.403,101.204 147.5,101.5C 138.951,103.249 130.284,103.916 121.5,103.5C 119.898,101.926 117.898,101.259 115.5,101.5C 113.151,99.659 110.485,98.3257 107.5,97.5C 106.738,95.7376 105.404,94.7376 103.5,94.5C 100.785,91.1185 97.7852,88.1185 94.5,85.5C 93.6618,85.1583 93.3284,84.4916 93.5,83.5C 93.573,81.9731 92.9063,80.9731 91.5,80.5C 90.6618,80.1583 90.3284,79.4916 90.5,78.5C 90.0719,75.2154 89.0719,72.2154 87.5,69.5C 87.5,62.8333 87.5,56.1667 87.5,49.5C 87.2322,47.901 87.5655,46.5676 88.5,45.5C 90.2927,43.5739 91.2927,41.2406 91.5,38.5C 92.9063,38.0269 93.573,37.0269 93.5,35.5C 94.9063,35.0269 95.573,34.0269 95.5,32.5C 98.4639,30.0381 101.297,27.3714 104,24.5C 104.464,25.0944 104.631,25.7611 104.5,26.5 Z"/></g>
<g><path style="opacity:0.412" fill="#d2d2d2" d="M 95.5,32.5 C 95.573,34.0269 94.9063,35.0269 93.5,35.5C 93.427,33.9731 94.0937,32.9731 95.5,32.5 Z"/></g>
<g><path style="opacity:0.294" fill="#dfdfdf" d="M 93.5,35.5 C 93.573,37.0269 92.9063,38.0269 91.5,38.5C 91.427,36.9731 92.0937,35.9731 93.5,35.5 Z"/></g>
<g><path style="opacity:0.455" fill="#d1d1d1" d="M 109.5,30.5 C 107.269,39.0802 106.935,47.7469 108.5,56.5C 106.952,52.966 106.286,49.1327 106.5,45C 106.667,42.1667 106.833,39.3333 107,36.5C 107.24,34.1484 108.073,32.1484 109.5,30.5 Z"/></g>
<g><path style="opacity:0.255" fill="#e2e2e2" d="M 91.5,38.5 C 91.2927,41.2406 90.2927,43.5739 88.5,45.5C 88.7073,42.7594 89.7073,40.4261 91.5,38.5 Z"/></g>
<g><path style="opacity:0.659" fill="#c6c6c6" d="M 87.5,49.5 C 87.5,56.1667 87.5,62.8333 87.5,69.5C 84.8333,62.8333 84.8333,56.1667 87.5,49.5 Z"/></g>
<g><path style="opacity:0.033" fill="#e2e2e2" d="M 137.5,51.5 C 138.657,54.2727 139.324,57.2727 139.5,60.5C 137.735,57.8774 137.068,54.8774 137.5,51.5 Z"/></g>
<g><path style="opacity:0.043" fill="#d7d7d7" d="M 111.5,63.5 C 112.906,63.9731 113.573,64.9731 113.5,66.5C 112.094,66.0269 111.427,65.0269 111.5,63.5 Z"/></g>
<g><path style="opacity:0.204" fill="#dcdcdc" d="M 139.5,61.5 C 140.931,62.7804 141.598,64.4471 141.5,66.5C 140.069,65.2196 139.402,63.5529 139.5,61.5 Z"/></g>
<g><path style="opacity:0.306" fill="#e5e5e5" d="M 103.5,64.5 C 104.674,65.5137 105.34,66.847 105.5,68.5C 103.896,67.713 103.229,66.3797 103.5,64.5 Z"/></g>
<g><path style="opacity:0.024" fill="#e0e0e0" d="M 113.5,66.5 C 114.906,66.9731 115.573,67.9731 115.5,69.5C 114.094,69.0269 113.427,68.0269 113.5,66.5 Z"/></g>
<g><path style="opacity:0.243" fill="#e4e4e4" d="M 79.5,71.5 C 78.8333,70.8333 78.1667,70.1667 77.5,69.5C 77.3505,68.448 77.5172,67.448 78,66.5C 79.0086,68.0249 79.5086,69.6916 79.5,71.5 Z"/></g>
<g><path style="opacity:0.031" fill="#c9c9c9" d="M 187.5,71.5 C 186.883,71.3893 186.383,71.056 186,70.5C 185.963,72.9739 185.13,74.9739 183.5,76.5C 183.881,72.9756 184.881,69.6423 186.5,66.5C 187.452,68.0453 187.785,69.712 187.5,71.5 Z"/></g>
<g><path style="opacity:0.02" fill="#e2e2e2" d="M 87.5,69.5 C 89.0719,72.2154 90.0719,75.2154 90.5,78.5C 88.5275,75.9164 87.5275,72.9164 87.5,69.5 Z"/></g>
<g><path style="opacity:1" fill="#171717" d="M 77.5,69.5 C 78.1667,70.1667 78.8333,70.8333 79.5,71.5C 79.0535,74.0101 79.7202,76.0101 81.5,77.5C 83.341,79.8485 84.6743,82.5152 85.5,85.5C 85.427,87.0269 86.0937,88.0269 87.5,88.5C 88.7573,91.4274 90.7573,93.7607 93.5,95.5C 94.1667,95.5 94.5,95.8333 94.5,96.5C 95.2623,98.2624 96.5956,99.2624 98.5,99.5C 99.1667,99.5 99.5,99.8333 99.5,100.5C 99.9731,101.906 100.973,102.573 102.5,102.5C 103.492,102.328 104.158,102.662 104.5,103.5C 106.579,105.873 109.246,107.206 112.5,107.5C 115.135,109.328 118.135,110.495 121.5,111C 128.5,111.667 135.5,111.667 142.5,111C 143.737,110.768 144.737,110.268 145.5,109.5C 145.833,109.5 146.167,109.5 146.5,109.5C 148.786,109.405 150.786,108.738 152.5,107.5C 152.842,106.662 153.508,106.328 154.5,106.5C 157.32,106.913 159.32,105.913 160.5,103.5C 163.198,103.155 165.198,101.822 166.5,99.5C 169.833,98.1667 172.167,95.8333 173.5,92.5C 173.833,91.5 174.5,90.8333 175.5,90.5C 176.906,90.0269 177.573,89.0269 177.5,87.5C 178.906,87.0269 179.573,86.0269 179.5,84.5C 181.873,82.4208 183.206,79.7541 183.5,76.5C 185.13,74.9739 185.963,72.9739 186,70.5C 186.383,71.056 186.883,71.3893 187.5,71.5C 188.773,75.8652 188.773,80.1985 187.5,84.5C 185.797,91.6094 183.464,98.6094 180.5,105.5C 180.672,106.492 180.338,107.158 179.5,107.5C 178.094,107.973 177.427,108.973 177.5,110.5C 176.094,110.973 175.427,111.973 175.5,113.5C 174.833,114.833 173.833,115.833 172.5,116.5C 171.5,116.833 170.833,117.5 170.5,118.5C 169.833,119.833 168.833,120.833 167.5,121.5C 165.973,121.427 164.973,122.094 164.5,123.5C 164.027,124.906 163.027,125.573 161.5,125.5C 159.973,125.427 158.973,126.094 158.5,127.5C 156.447,127.402 154.78,128.069 153.5,129.5C 153.158,130.338 152.492,130.672 151.5,130.5C 148.848,130.41 146.515,131.076 144.5,132.5C 135.093,134.007 125.76,133.674 116.5,131.5C 116.167,131.5 115.833,131.5 115.5,131.5C 114.22,130.069 112.553,129.402 110.5,129.5C 108.181,129.008 106.181,128.008 104.5,126.5C 104.027,125.094 103.027,124.427 101.5,124.5C 100.738,122.738 99.4044,121.738 97.5,121.5C 94.8333,118.167 91.8333,115.167 88.5,112.5C 87.6597,110.147 86.3264,108.147 84.5,106.5C 81.7502,100.571 79.4168,94.5707 77.5,88.5C 76.1927,82.0676 76.1927,75.7343 77.5,69.5 Z"/></g>
<g><path style="opacity:0.475" fill="#c1c1c1" d="M 122.5,75.5 C 124.027,75.427 125.027,76.0937 125.5,77.5C 123.973,77.573 122.973,76.9063 122.5,75.5 Z"/></g>
<g><path style="opacity:0.89" fill="#a0a0a0" d="M 79.5,71.5 C 80.7384,73.2143 81.405,75.2143 81.5,77.5C 79.7202,76.0101 79.0535,74.0101 79.5,71.5 Z"/></g>
<g><path style="opacity:0.8" fill="#bcbcbc" d="M 108.5,73.5 C 111.5,75.8333 114.167,78.5 116.5,81.5C 112.833,79.8333 110.167,77.1667 108.5,73.5 Z"/></g>
<g><path style="opacity:0.255" fill="#e3e3e3" d="M 143.5,70.5 C 144.906,70.9731 145.573,71.9731 145.5,73.5C 144.094,73.0269 143.427,72.0269 143.5,70.5 Z"/></g>
<g><path style="opacity:0.451" fill="#cacaca" d="M 106.5,70.5 C 107.906,70.9731 108.573,71.9731 108.5,73.5C 107.094,73.0269 106.427,72.0269 106.5,70.5 Z"/></g>
<g><path style="opacity:0.855" fill="#a1a1a1" d="M 117.5,71.5 C 119.749,72.0798 121.415,73.4131 122.5,75.5C 120.251,74.9202 118.585,73.5869 117.5,71.5 Z"/></g>
<g><path style="opacity:0.533" fill="#c7c7c7" d="M 146.5,75.5 C 148.262,76.2623 149.262,77.5956 149.5,79.5C 147.738,78.7377 146.738,77.4044 146.5,75.5 Z"/></g>
<g><path style="opacity:0.667" fill="#afafaf" d="M 129.5,79.5 C 133.905,80.6874 138.405,81.354 143,81.5C 145.61,81.4668 147.777,80.8001 149.5,79.5C 150.478,79.811 151.145,80.4777 151.5,81.5C 149.089,82.4825 146.589,83.1492 144,83.5C 138.787,83.0612 133.954,81.7279 129.5,79.5 Z"/></g>
<g><path style="opacity:0.318" fill="#d0d0d0" d="M 183.5,76.5 C 183.206,79.7541 181.873,82.4208 179.5,84.5C 180.326,81.5152 181.659,78.8485 183.5,76.5 Z"/></g>
<g><path style="opacity:0.247" fill="#d5d5d5" d="M 91.5,80.5 C 92.9063,80.9731 93.573,81.9731 93.5,83.5C 92.0937,83.0269 91.427,82.0269 91.5,80.5 Z"/></g>
<g><path style="opacity:0.059" fill="#d1d1d1" d="M 117.5,82.5 C 119.027,82.427 120.027,83.0937 120.5,84.5C 118.973,84.573 117.973,83.9063 117.5,82.5 Z"/></g>
<g><path style="opacity:0.643" fill="#bdbdbd" d="M 166.5,87.5 C 166.158,86.6618 165.492,86.3284 164.5,86.5C 165.765,85.5207 167.099,84.5207 168.5,83.5C 169.395,85.3448 168.728,86.6782 166.5,87.5 Z"/></g>
<g><path style="opacity:0.365" fill="#cdcdcd" d="M 122.5,85.5 C 124.819,85.9925 126.819,86.9925 128.5,88.5C 125.911,88.539 123.911,87.539 122.5,85.5 Z"/></g>
<g><path style="opacity:0.18" fill="#dbdbdb" d="M 164.5,86.5 C 163.22,87.9313 161.553,88.5979 159.5,88.5C 160.78,87.0687 162.447,86.4021 164.5,86.5 Z"/></g>
<g><path style="opacity:0.353" fill="#dedede" d="M 179.5,84.5 C 179.573,86.0269 178.906,87.0269 177.5,87.5C 177.427,85.9731 178.094,84.9731 179.5,84.5 Z"/></g>
<g><path style="opacity:0.514" fill="#bebebe" d="M 85.5,85.5 C 86.9063,85.9731 87.573,86.9731 87.5,88.5C 86.0937,88.0269 85.427,87.0269 85.5,85.5 Z"/></g>
<g><path style="opacity:0.016" fill="#c5c5c5" d="M 94.5,85.5 C 97.7852,88.1185 100.785,91.1185 103.5,94.5C 99.5216,92.5216 96.5216,89.5216 94.5,85.5 Z"/></g>
<g><path style="opacity:0.255" fill="#d2d2d2" d="M 187.5,84.5 C 187.334,92.3304 185.001,99.3304 180.5,105.5C 183.464,98.6094 185.797,91.6094 187.5,84.5 Z"/></g>
<g><path style="opacity:0.769" fill="#bababa" d="M 159.5,88.5 C 157.562,90.1628 155.228,90.8294 152.5,90.5C 154.599,89.3882 156.933,88.7215 159.5,88.5 Z"/></g>
<g><path style="opacity:0.055" fill="#dadada" d="M 166.5,87.5 C 165.167,90.8333 162.833,93.1667 159.5,94.5C 161.5,91.8333 163.833,89.5 166.5,87.5 Z"/></g>
<g><path style="opacity:0.518" fill="#c6c6c6" d="M 177.5,87.5 C 177.573,89.0269 176.906,90.0269 175.5,90.5C 175.427,88.9731 176.094,87.9731 177.5,87.5 Z"/></g>
<g><path style="opacity:0.17" fill="#e8e8e8" d="M 128.5,88.5 C 136.046,90.2015 143.713,90.8682 151.5,90.5C 146.015,91.6517 140.349,91.8184 134.5,91C 132.277,90.4338 130.277,89.6005 128.5,88.5 Z"/></g>
<g><path style="opacity:0.059" fill="#dcdcdc" d="M 77.5,88.5 C 79.4168,94.5707 81.7502,100.571 84.5,106.5C 80.2257,101.358 77.8924,95.3583 77.5,88.5 Z"/></g>
<g><path style="opacity:0.663" fill="#bababa" d="M 87.5,88.5 C 90.2427,90.2393 92.2427,92.5726 93.5,95.5C 90.7573,93.7607 88.7573,91.4274 87.5,88.5 Z"/></g>
<g><path style="opacity:0.706" fill="#a9a9a9" d="M 103.5,94.5 C 105.404,94.7376 106.738,95.7376 107.5,97.5C 105.596,97.2624 104.262,96.2624 103.5,94.5 Z"/></g>
<g><path style="opacity:0.02" fill="#dddddd" d="M 94.5,96.5 C 96.4044,96.7376 97.7377,97.7376 98.5,99.5C 96.5956,99.2624 95.2623,98.2624 94.5,96.5 Z"/></g>
<g><path style="opacity:0.039" fill="#e5e5e5" d="M 158.5,95.5 C 158.027,96.9063 157.027,97.573 155.5,97.5C 155.973,96.0937 156.973,95.427 158.5,95.5 Z"/></g>
<g><path style="opacity:0.851" fill="#898989" d="M 173.5,92.5 C 172.167,95.8333 169.833,98.1667 166.5,99.5C 168.5,96.8333 170.833,94.5 173.5,92.5 Z"/></g>
<g><path style="opacity:0.322" fill="#cecece" d="M 107.5,97.5 C 110.485,98.3257 113.151,99.659 115.5,101.5C 112.246,101.206 109.579,99.873 107.5,97.5 Z"/></g>
<g><path style="opacity:0.008" fill="#eeeeee" d="M 155.5,97.5 C 155.027,98.9063 154.027,99.573 152.5,99.5C 152.973,98.0937 153.973,97.427 155.5,97.5 Z"/></g>
<g><path style="opacity:0.02" fill="#dedede" d="M 99.5,100.5 C 101.027,100.427 102.027,101.094 102.5,102.5C 100.973,102.573 99.9731,101.906 99.5,100.5 Z"/></g>
<g><path style="opacity:0.835" fill="#aaaaaa" d="M 115.5,101.5 C 117.898,101.259 119.898,101.926 121.5,103.5C 119.214,103.405 117.214,102.738 115.5,101.5 Z"/></g>
<g><path style="opacity:0.694" fill="#b5b5b5" d="M 166.5,99.5 C 165.198,101.822 163.198,103.155 160.5,103.5C 162.147,101.674 164.147,100.34 166.5,99.5 Z"/></g>
<g><path style="opacity:0.686" fill="#bcbcbc" d="M 147.5,101.5 C 138.968,105.192 130.301,105.859 121.5,103.5C 130.284,103.916 138.951,103.249 147.5,101.5 Z"/></g>
<g><path style="opacity:0.282" fill="#d8d8d8" d="M 104.5,103.5 C 107.485,104.326 110.151,105.659 112.5,107.5C 109.246,107.206 106.579,105.873 104.5,103.5 Z"/></g>
<g><path style="opacity:1" fill="#797979" d="M 160.5,103.5 C 159.32,105.913 157.32,106.913 154.5,106.5C 156.181,104.992 158.181,103.992 160.5,103.5 Z"/></g>
<g><path style="opacity:0.045" fill="#dcdcdc" d="M 152.5,107.5 C 150.786,108.738 148.786,109.405 146.5,109.5C 148.102,107.926 150.102,107.259 152.5,107.5 Z"/></g>
<g><path style="opacity:0.271" fill="#d3d3d3" d="M 84.5,106.5 C 86.3264,108.147 87.6597,110.147 88.5,112.5C 86.1782,111.198 84.8449,109.198 84.5,106.5 Z"/></g>
<g><path style="opacity:0.039" fill="#dcdcdc" d="M 179.5,107.5 C 179.573,109.027 178.906,110.027 177.5,110.5C 177.427,108.973 178.094,107.973 179.5,107.5 Z"/></g>
<g><path style="opacity:0.171" fill="#d2d2d2" d="M 112.5,107.5 C 123.332,110.588 134.332,111.255 145.5,109.5C 144.737,110.268 143.737,110.768 142.5,111C 135.5,111.667 128.5,111.667 121.5,111C 118.135,110.495 115.135,109.328 112.5,107.5 Z"/></g>
<g><path style="opacity:0.024" fill="#e3e3e3" d="M 177.5,110.5 C 177.573,112.027 176.906,113.027 175.5,113.5C 175.427,111.973 176.094,110.973 177.5,110.5 Z"/></g>
<g><path style="opacity:0.012" fill="#cfcfcf" d="M 88.5,112.5 C 91.8333,115.167 94.8333,118.167 97.5,121.5C 93.5,119.5 90.5,116.5 88.5,112.5 Z"/></g>
<g><path style="opacity:0.008" fill="#eaeaea" d="M 172.5,116.5 C 172.5,117.833 171.833,118.5 170.5,118.5C 170.833,117.5 171.5,116.833 172.5,116.5 Z"/></g>
<g><path style="opacity:0.675" fill="#b0b0b0" d="M 97.5,121.5 C 99.4044,121.738 100.738,122.738 101.5,124.5C 99.5956,124.262 98.2623,123.262 97.5,121.5 Z"/></g>
<g><path style="opacity:0.016" fill="#ededed" d="M 167.5,121.5 C 167.027,122.906 166.027,123.573 164.5,123.5C 164.973,122.094 165.973,121.427 167.5,121.5 Z"/></g>
<g><path style="opacity:0.4" fill="#d0d0d0" d="M 101.5,124.5 C 103.027,124.427 104.027,125.094 104.5,126.5C 102.973,126.573 101.973,125.906 101.5,124.5 Z"/></g>
<g><path style="opacity:0.024" fill="#e8e8e8" d="M 161.5,125.5 C 161.027,126.906 160.027,127.573 158.5,127.5C 158.973,126.094 159.973,125.427 161.5,125.5 Z"/></g>
<g><path style="opacity:0.353" fill="#d3d3d3" d="M 158.5,127.5 C 157.22,128.931 155.553,129.598 153.5,129.5C 154.78,128.069 156.447,127.402 158.5,127.5 Z"/></g>
<g><path style="opacity:0.065" fill="#ebebeb" d="M 110.5,129.5 C 112.553,129.402 114.22,130.069 115.5,131.5C 113.447,131.598 111.78,130.931 110.5,129.5 Z"/></g>
<g><path style="opacity:0.059" fill="#e3e3e3" d="M 151.5,130.5 C 149.485,131.924 147.152,132.59 144.5,132.5C 146.515,131.076 148.848,130.41 151.5,130.5 Z"/></g>
<g><path style="opacity:0.167" fill="#dddddd" d="M 116.5,131.5 C 125.76,133.674 135.093,134.007 144.5,132.5C 140.594,133.94 136.427,134.606 132,134.5C 126.474,134.694 121.307,133.694 116.5,131.5 Z"/></g>
<g><path style="opacity:0.031" fill="#d0d0d0" d="M 28.5,149.5 C 26.1843,148.84 23.851,148.173 21.5,147.5C 19.149,148.173 16.8157,148.84 14.5,149.5C 16.3069,147.555 18.6402,146.555 21.5,146.5C 24.3598,146.555 26.6931,147.555 28.5,149.5 Z"/></g>
<g><path style="opacity:0.203" fill="#e7e7e7" d="M 68.5,148.5 C 67.1667,148.5 65.8333,148.5 64.5,148.5C 64.5,155.5 64.5,162.5 64.5,169.5C 65.5,169.5 66.5,169.5 67.5,169.5C 67.334,164.156 67.5006,158.823 68,153.5C 68.7172,154.044 69.2172,154.711 69.5,155.5C 68.5128,160.305 68.1795,165.305 68.5,170.5C 66.8333,170.5 65.1667,170.5 63.5,170.5C 63.3336,162.826 63.5003,155.159 64,147.5C 65.9151,146.084 67.4151,146.418 68.5,148.5 Z"/></g>
<g><path style="opacity:0.729" fill="#a4a4a4" d="M 106.5,147.5 C 106.5,147.833 106.5,148.167 106.5,148.5C 101.833,148.5 97.1667,148.5 92.5,148.5C 92.5,148.167 92.5,147.833 92.5,147.5C 97.1667,146.167 101.833,146.167 106.5,147.5 Z"/></g>
<g><path style="opacity:0.041" fill="#eaeaea" d="M 174.5,149.5 C 172.958,148.699 171.292,148.366 169.5,148.5C 169.5,155.5 169.5,162.5 169.5,169.5C 170.5,169.5 171.5,169.5 172.5,169.5C 172.334,163.824 172.501,158.157 173,152.5C 173.383,153.056 173.883,153.389 174.5,153.5C 174.5,154.167 174.5,154.833 174.5,155.5C 173.513,160.305 173.179,165.305 173.5,170.5C 171.833,170.5 170.167,170.5 168.5,170.5C 168.334,162.826 168.5,155.159 169,147.5C 171.609,146.091 173.442,146.758 174.5,149.5 Z"/></g>
<g><path style="opacity:0.741" fill="#a3a3a3" d="M 226.5,151.5 C 225.622,149.127 223.955,148.294 221.5,149C 220.199,152.788 218.532,156.288 216.5,159.5C 217.094,154.88 218.761,150.713 221.5,147C 224.838,146.5 226.505,148 226.5,151.5 Z"/></g>
<g><path style="opacity:0.164" fill="#eaeaea" d="M 78.5,169.5 C 79.8333,169.5 81.1667,169.5 82.5,169.5C 82.5,162.5 82.5,155.5 82.5,148.5C 81.5,148.5 80.5,148.5 79.5,148.5C 79.6661,154.176 79.4994,159.843 79,165.5C 77.9055,163.922 77.0722,162.255 76.5,160.5C 77.1174,160.611 77.6174,160.944 78,161.5C 78.3333,156.833 78.6667,152.167 79,147.5C 80.3333,146.167 81.6667,146.167 83,147.5C 83.4997,155.159 83.6664,162.826 83.5,170.5C 81.5853,170.784 79.9187,170.451 78.5,169.5 Z"/></g>
<g><path style="opacity:0.397" fill="#c0c0c0" d="M 182.5,167.5 C 183.82,168.942 185.486,169.608 187.5,169.5C 187.83,162.468 187.497,155.468 186.5,148.5C 185.833,154.167 185.167,159.833 184.5,165.5C 183.295,164.423 182.628,163.09 182.5,161.5C 183.117,161.611 183.617,161.944 184,162.5C 184.499,157.177 184.666,151.844 184.5,146.5C 185.822,146.33 186.989,146.663 188,147.5C 188.5,155.159 188.666,162.826 188.5,170.5C 186.801,170.66 185.134,170.494 183.5,170C 182.748,169.329 182.414,168.496 182.5,167.5 Z"/></g>
<g><path style="opacity:0.946" fill="#191919" d="M 116.5,148.5 C 120.182,148.335 123.848,148.501 127.5,149C 124.635,149.183 121.969,149.683 119.5,150.5C 119.5,152.833 119.5,155.167 119.5,157.5C 121.631,158.314 123.964,158.814 126.5,159C 123.964,159.186 121.631,159.686 119.5,160.5C 119.5,162.833 119.5,165.167 119.5,167.5C 122.572,167.183 125.572,167.516 128.5,168.5C 124.555,169.491 120.555,169.824 116.5,169.5C 116.5,162.5 116.5,155.5 116.5,148.5 Z"/></g>
<g><path style="opacity:0.888" fill="#7c7c7c" d="M 128.5,147.5 C 128.5,148.5 128.5,149.5 128.5,150.5C 125.5,150.5 122.5,150.5 119.5,150.5C 121.969,149.683 124.635,149.183 127.5,149C 123.848,148.501 120.182,148.335 116.5,148.5C 116.5,148.167 116.5,147.833 116.5,147.5C 120.5,146.167 124.5,146.167 128.5,147.5 Z"/></g>
<g><path style="opacity:0.298" fill="#dbdbdb" d="M 145.5,151.5 C 143.947,149.615 141.947,148.615 139.5,148.5C 139.5,155.5 139.5,162.5 139.5,169.5C 139.5,169.833 139.5,170.167 139.5,170.5C 138.344,163.011 138.178,155.345 139,147.5C 142.443,146.402 144.609,147.735 145.5,151.5 Z"/></g>
<g><path style="opacity:0.212" fill="#e6e6e6" d="M 153.5,169.5 C 154.833,169.5 156.167,169.5 157.5,169.5C 157.5,162.5 157.5,155.5 157.5,148.5C 156.5,148.5 155.5,148.5 154.5,148.5C 154.666,154.176 154.499,159.843 154,165.5C 152.961,164.756 152.461,163.756 152.5,162.5C 153.326,157.684 153.826,152.684 154,147.5C 155.333,146.167 156.667,146.167 158,147.5C 158.5,155.159 158.666,162.826 158.5,170.5C 156.585,170.784 154.919,170.451 153.5,169.5 Z"/></g>
<g><path style="opacity:0.427" fill="#bcbcbc" d="M 199.5,146.5 C 200.833,146.5 202.167,146.5 203.5,146.5C 203.5,154.5 203.5,162.5 203.5,170.5C 202.167,170.5 200.833,170.5 199.5,170.5C 199.5,162.5 199.5,154.5 199.5,146.5 Z"/></g>
<g><path style="opacity:0.747" fill="#828282" d="M 242.5,147.5 C 243.791,147.263 244.791,147.596 245.5,148.5C 243.539,155.087 242.872,162.087 243.5,169.5C 246.833,169.5 250.167,169.5 253.5,169.5C 253.5,169.833 253.5,170.167 253.5,170.5C 249.833,170.5 246.167,170.5 242.5,170.5C 242.5,162.833 242.5,155.167 242.5,147.5 Z"/></g>
<g><path style="opacity:0.997" fill="#111111" d="M 245.5,148.5 C 245.5,154.833 245.5,161.167 245.5,167.5C 248.698,166.964 251.365,167.631 253.5,169.5C 250.167,169.5 246.833,169.5 243.5,169.5C 242.872,162.087 243.539,155.087 245.5,148.5 Z"/></g>
<g><path style="opacity:0.38" fill="#e5e5e5" d="M 242.5,147.5 C 243.568,146.566 244.901,146.232 246.5,146.5C 246.5,153.167 246.5,159.833 246.5,166.5C 249.167,166.5 251.833,166.5 254.5,166.5C 254.768,168.099 254.434,169.432 253.5,170.5C 253.5,170.167 253.5,169.833 253.5,169.5C 251.365,167.631 248.698,166.964 245.5,167.5C 245.5,161.167 245.5,154.833 245.5,148.5C 244.791,147.596 243.791,147.263 242.5,147.5 Z"/></g>
<g><path style="opacity:0.996" fill="#0a0a0a" d="M 200.5,148.5 C 201.821,151.598 202.488,155.098 202.5,159C 202.167,162.5 201.833,166 201.5,169.5C 200.503,162.532 200.17,155.532 200.5,148.5 Z"/></g>
<g><path style="opacity:0.341" fill="#d9d9d9" d="M 174.5,149.5 C 175.906,149.973 176.573,150.973 176.5,152.5C 176.167,152.5 175.833,152.5 175.5,152.5C 174.89,151.609 174.557,150.609 174.5,149.5 Z"/></g>
<g><path style="opacity:0.357" fill="#cacaca" d="M 12.5,151.5 C 12.573,153.027 11.9063,154.027 10.5,154.5C 10.427,152.973 11.0937,151.973 12.5,151.5 Z"/></g>
<g><path style="opacity:1" fill="#585858" d="M 175.5,152.5 C 175.833,152.5 176.167,152.5 176.5,152.5C 177.89,153.899 178.89,155.566 179.5,157.5C 176.82,154.557 176.153,154.89 177.5,158.5C 177.167,158.5 176.833,158.5 176.5,158.5C 175.599,157.71 174.932,156.71 174.5,155.5C 174.5,154.833 174.5,154.167 174.5,153.5C 174.5,152.833 174.833,152.5 175.5,152.5 Z"/></g>
<g><path style="opacity:0.051" fill="#e7e7e7" d="M 30.5,151.5 C 31.9284,153.377 31.4284,154.711 29,155.5C 27.9701,155.164 27.4701,154.497 27.5,153.5C 29.3678,154.674 30.3678,154.007 30.5,151.5 Z"/></g>
<g><path style="opacity:0.534" fill="#c3c3c3" d="M 92.5,147.5 C 92.5,147.833 92.5,148.167 92.5,148.5C 93.9179,150.308 95.9179,150.975 98.5,150.5C 99.1667,175.833 99.8333,175.833 100.5,150.5C 103.082,150.975 105.082,150.308 106.5,148.5C 106.5,148.167 106.5,147.833 106.5,147.5C 107.434,148.568 107.768,149.901 107.5,151.5C 105.5,151.5 103.5,151.5 101.5,151.5C 101.5,157.833 101.5,164.167 101.5,170.5C 100.167,170.5 98.8333,170.5 97.5,170.5C 97.5,164.167 97.5,157.833 97.5,151.5C 95.5,151.5 93.5,151.5 91.5,151.5C 91.2322,149.901 91.5655,148.568 92.5,147.5 Z"/></g>
<g><path style="opacity:1" fill="#0f0f0f" d="M 92.5,148.5 C 97.1667,148.5 101.833,148.5 106.5,148.5C 105.082,150.308 103.082,150.975 100.5,150.5C 99.8333,175.833 99.1667,175.833 98.5,150.5C 95.9179,150.975 93.9179,150.308 92.5,148.5 Z"/></g>
<g><path style="opacity:0.072" fill="#ededed" d="M 14.5,154.5 C 14.3424,157.902 14.6758,161.236 15.5,164.5C 14.8826,164.389 14.3826,164.056 14,163.5C 13.1955,160.304 13.3622,157.304 14.5,154.5 Z"/></g>
<g><path style="opacity:0.067" fill="#fbfbfb" d="M 128.5,147.5 C 129.434,148.568 129.768,149.901 129.5,151.5C 126.5,151.5 123.5,151.5 120.5,151.5C 120.5,153.167 120.5,154.833 120.5,156.5C 123.059,156.198 125.393,156.532 127.5,157.5C 124.833,157.5 122.167,157.5 119.5,157.5C 119.5,155.167 119.5,152.833 119.5,150.5C 122.5,150.5 125.5,150.5 128.5,150.5C 128.5,149.5 128.5,148.5 128.5,147.5 Z"/></g>
<g><path style="opacity:0.214" fill="#e6e6e6" d="M 116.5,147.5 C 116.5,147.833 116.5,148.167 116.5,148.5C 116.5,155.5 116.5,162.5 116.5,169.5C 120.555,169.824 124.555,169.491 128.5,168.5C 125.572,167.516 122.572,167.183 119.5,167.5C 119.5,165.167 119.5,162.833 119.5,160.5C 122.167,160.5 124.833,160.5 127.5,160.5C 125.393,161.468 123.059,161.802 120.5,161.5C 120.5,163.167 120.5,164.833 120.5,166.5C 123.5,166.5 126.5,166.5 129.5,166.5C 129.5,167.833 129.5,169.167 129.5,170.5C 124.833,170.5 120.167,170.5 115.5,170.5C 115.175,162.648 115.508,154.982 116.5,147.5 Z"/></g>
<g><path style="opacity:0.999" fill="#232323" d="M 174.5,149.5 C 174.557,150.609 174.89,151.609 175.5,152.5C 174.833,152.5 174.5,152.833 174.5,153.5C 173.883,153.389 173.383,153.056 173,152.5C 172.501,158.157 172.334,163.824 172.5,169.5C 171.5,169.5 170.5,169.5 169.5,169.5C 169.5,162.5 169.5,155.5 169.5,148.5C 171.292,148.366 172.958,148.699 174.5,149.5 Z"/></g>
<g><path style="opacity:0.212" fill="#c0c0c0" d="M 226.5,151.5 C 228.02,153.89 229.02,156.557 229.5,159.5C 227.415,157.316 226.415,154.649 226.5,151.5 Z"/></g>
<g><path style="opacity:0.975" fill="#373737" d="M 53.5,147.5 C 53.5,148.5 53.5,149.5 53.5,150.5C 50.5,150.5 47.5,150.5 44.5,150.5C 44.5,152.833 44.5,155.167 44.5,157.5C 47.1667,157.5 49.8333,157.5 52.5,157.5C 52.5,158.5 52.5,159.5 52.5,160.5C 49.8333,160.5 47.1667,160.5 44.5,160.5C 44.5,162.833 44.5,165.167 44.5,167.5C 47.5719,167.183 50.5719,167.516 53.5,168.5C 49.5546,169.491 45.5546,169.824 41.5,169.5C 41.5,162.167 41.5,154.833 41.5,147.5C 45.5,146.167 49.5,146.167 53.5,147.5 Z"/></g>
<g><path style="opacity:0.995" fill="#212121" d="M 145.5,151.5 C 146.338,151.842 146.672,152.508 146.5,153.5C 146.427,155.027 147.094,156.027 148.5,156.5C 148.427,158.027 149.094,159.027 150.5,159.5C 150.427,161.027 151.094,162.027 152.5,162.5C 152.461,163.756 152.961,164.756 154,165.5C 154.499,159.843 154.666,154.176 154.5,148.5C 155.5,148.5 156.5,148.5 157.5,148.5C 157.5,155.5 157.5,162.5 157.5,169.5C 156.167,169.5 154.833,169.5 153.5,169.5C 152.094,169.027 151.427,168.027 151.5,166.5C 151.573,164.973 150.906,163.973 149.5,163.5C 149.573,161.973 148.906,160.973 147.5,160.5C 147.573,158.973 146.906,157.973 145.5,157.5C 145.573,155.973 144.906,154.973 143.5,154.5C 143.631,153.624 143.298,152.957 142.5,152.5C 142.137,158.559 141.137,164.226 139.5,169.5C 139.5,162.5 139.5,155.5 139.5,148.5C 141.947,148.615 143.947,149.615 145.5,151.5 Z"/></g>
<g><path style="opacity:0.027" fill="#dcdcdc" d="M 145.5,157.5 C 146.906,157.973 147.573,158.973 147.5,160.5C 146.094,160.027 145.427,159.027 145.5,157.5 Z"/></g>
<g><path style="opacity:0.514" fill="#bdbdbd" d="M 146.5,153.5 C 147.906,153.973 148.573,154.973 148.5,156.5C 147.094,156.027 146.427,155.027 146.5,153.5 Z"/></g>
<g><path style="opacity:0.031" fill="#dbdbdb" d="M 143.5,154.5 C 144.906,154.973 145.573,155.973 145.5,157.5C 144.094,157.027 143.427,156.027 143.5,154.5 Z"/></g>
<g><path style="opacity:0.498" fill="#bfbfbf" d="M 148.5,156.5 C 149.906,156.973 150.573,157.973 150.5,159.5C 149.094,159.027 148.427,158.027 148.5,156.5 Z"/></g>
<g><path style="opacity:0.82" fill="#707070" d="M 119.5,157.5 C 122.167,157.5 124.833,157.5 127.5,157.5C 128.833,158.5 128.833,159.5 127.5,160.5C 124.833,160.5 122.167,160.5 119.5,160.5C 121.631,159.686 123.964,159.186 126.5,159C 123.964,158.814 121.631,158.314 119.5,157.5 Z"/></g>
<g><path style="opacity:0.016" fill="#e4e4e4" d="M 176.5,158.5 C 176.833,158.5 177.167,158.5 177.5,158.5C 178.11,159.391 178.443,160.391 178.5,161.5C 177.094,161.027 176.427,160.027 176.5,158.5 Z"/></g>
<g><path style="opacity:0.031" fill="#d7d7d7" d="M 147.5,160.5 C 148.906,160.973 149.573,161.973 149.5,163.5C 148.094,163.027 147.427,162.027 147.5,160.5 Z"/></g>
<g><path style="opacity:0.482" fill="#c3c3c3" d="M 150.5,159.5 C 151.906,159.973 152.573,160.973 152.5,162.5C 151.094,162.027 150.427,161.027 150.5,159.5 Z"/></g>
<g><path style="opacity:0.98" fill="#1f1f1f" d="M 226.5,151.5 C 226.415,154.649 227.415,157.316 229.5,159.5C 230.404,160.209 230.737,161.209 230.5,162.5C 230.402,164.553 231.069,166.22 232.5,167.5C 232.179,169.048 231.179,169.715 229.5,169.5C 228.596,168.791 228.263,167.791 228.5,166.5C 227.129,165.213 225.295,164.547 223,164.5C 218.847,163.921 216.68,165.588 216.5,169.5C 214.821,169.715 213.821,169.048 213.5,167.5C 215.585,165.316 216.585,162.649 216.5,159.5C 218.532,156.288 220.199,152.788 221.5,149C 223.955,148.294 225.622,149.127 226.5,151.5 Z M 225.5,158.5 C 225.5,159.5 225.5,160.5 225.5,161.5C 223.265,161.795 221.265,161.461 219.5,160.5C 221.311,158.615 222.478,156.281 223,153.5C 223.374,155.491 224.207,157.158 225.5,158.5 Z"/></g>
<g><path style="opacity:0.352" fill="#d0d0d0" d="M 225.5,158.5 C 228.436,161.409 227.603,162.742 223,162.5C 221.5,162.167 220,161.833 218.5,161.5C 218.624,160.893 218.957,160.56 219.5,160.5C 221.265,161.461 223.265,161.795 225.5,161.5C 225.5,160.5 225.5,159.5 225.5,158.5 Z"/></g>
<g><path style="opacity:0.329" fill="#dddddd" d="M 225.5,158.5 C 224.207,157.158 223.374,155.491 223,153.5C 222.478,156.281 221.311,158.615 219.5,160.5C 220.179,157.293 221.346,154.293 223,151.5C 224.523,153.569 225.357,155.903 225.5,158.5 Z"/></g>
<g><path style="opacity:0.027" fill="#e1e1e1" d="M 178.5,161.5 C 179.906,161.973 180.573,162.973 180.5,164.5C 179.094,164.027 178.427,163.027 178.5,161.5 Z"/></g>
<g><path style="opacity:0.298" fill="#cdcdcd" d="M 10.5,162.5 C 11.6737,163.514 12.3404,164.847 12.5,166.5C 10.8958,165.713 10.2291,164.38 10.5,162.5 Z"/></g>
<g><path style="opacity:1" fill="#222222" d="M 68.5,148.5 C 68.427,150.027 69.0937,151.027 70.5,151.5C 70.427,153.027 71.0937,154.027 72.5,154.5C 72.427,156.027 73.0937,157.027 74.5,157.5C 74.427,159.027 75.0937,160.027 76.5,160.5C 77.0722,162.255 77.9055,163.922 79,165.5C 79.4994,159.843 79.6661,154.176 79.5,148.5C 80.5,148.5 81.5,148.5 82.5,148.5C 82.5,155.5 82.5,162.5 82.5,169.5C 81.1667,169.5 79.8333,169.5 78.5,169.5C 78.573,167.973 77.9063,166.973 76.5,166.5C 76.573,164.973 75.9063,163.973 74.5,163.5C 74.573,161.973 73.9063,160.973 72.5,160.5C 71.1103,159.101 70.1103,157.434 69.5,155.5C 69.2172,154.711 68.7172,154.044 68,153.5C 67.5006,158.823 67.334,164.156 67.5,169.5C 66.5,169.5 65.5,169.5 64.5,169.5C 64.5,162.5 64.5,155.5 64.5,148.5C 65.8333,148.5 67.1667,148.5 68.5,148.5 Z"/></g>
<g><path style="opacity:0.012" fill="#e8e8e8" d="M 72.5,160.5 C 73.9063,160.973 74.573,161.973 74.5,163.5C 73.0937,163.027 72.427,162.027 72.5,160.5 Z"/></g>
<g><path style="opacity:0.345" fill="#d9d9d9" d="M 74.5,157.5 C 75.9063,157.973 76.573,158.973 76.5,160.5C 75.0937,160.027 74.427,159.027 74.5,157.5 Z"/></g>
<g><path style="opacity:0.369" fill="#d6d6d6" d="M 72.5,154.5 C 73.9063,154.973 74.573,155.973 74.5,157.5C 73.0937,157.027 72.427,156.027 72.5,154.5 Z"/></g>
<g><path style="opacity:0.388" fill="#d4d4d4" d="M 70.5,151.5 C 71.9063,151.973 72.573,152.973 72.5,154.5C 71.0937,154.027 70.427,153.027 70.5,151.5 Z"/></g>
<g><path style="opacity:0.4" fill="#d2d2d2" d="M 68.5,148.5 C 69.9063,148.973 70.573,149.973 70.5,151.5C 69.0937,151.027 68.427,150.027 68.5,148.5 Z"/></g>
<g><path style="opacity:0.774" fill="#757575" d="M 143.5,154.5 C 142.512,159.64 142.179,164.974 142.5,170.5C 141.5,170.5 140.5,170.5 139.5,170.5C 139.5,170.167 139.5,169.833 139.5,169.5C 141.137,164.226 142.137,158.559 142.5,152.5C 143.298,152.957 143.631,153.624 143.5,154.5 Z"/></g>
<g><path style="opacity:0.992" fill="#121212" d="M 182.5,167.5 C 182.573,165.973 181.906,164.973 180.5,164.5C 180.573,162.973 179.906,161.973 178.5,161.5C 178.443,160.391 178.11,159.391 177.5,158.5C 176.153,154.89 176.82,154.557 179.5,157.5C 179.738,159.404 180.738,160.738 182.5,161.5C 182.628,163.09 183.295,164.423 184.5,165.5C 185.167,159.833 185.833,154.167 186.5,148.5C 187.497,155.468 187.83,162.468 187.5,169.5C 185.486,169.608 183.82,168.942 182.5,167.5 Z"/></g>
<g><path style="opacity:0.58" fill="#bfbfbf" d="M 179.5,157.5 C 181.262,158.262 182.262,159.596 182.5,161.5C 180.738,160.738 179.738,159.404 179.5,157.5 Z"/></g>
<g><path style="opacity:0.008" fill="#e6e6e6" d="M 74.5,163.5 C 75.9063,163.973 76.573,164.973 76.5,166.5C 75.0937,166.027 74.427,165.027 74.5,163.5 Z"/></g>
<g><path style="opacity:0.051" fill="#d5d5d5" d="M 149.5,163.5 C 150.906,163.973 151.573,164.973 151.5,166.5C 150.094,166.027 149.427,165.027 149.5,163.5 Z"/></g>
<g><path style="opacity:0.428" fill="#d1d1d1" d="M 228.5,166.5 C 223.545,164.522 219.545,165.522 216.5,169.5C 216.68,165.588 218.847,163.921 223,164.5C 225.295,164.547 227.129,165.213 228.5,166.5 Z"/></g>
<g><path style="opacity:0.859" fill="#9e9e9e" d="M 27.5,164.5 C 28.5417,163.209 29.7083,163.209 31,164.5C 31.5847,165.998 31.0847,166.998 29.5,167.5C 29.7148,165.821 29.0481,164.821 27.5,164.5 Z"/></g>
<g><path style="opacity:0.024" fill="#dedede" d="M 180.5,164.5 C 181.906,164.973 182.573,165.973 182.5,167.5C 181.094,167.027 180.427,166.027 180.5,164.5 Z"/></g>
<g><path style="opacity:0.204" fill="#c2c2c2" d="M 216.5,159.5 C 216.585,162.649 215.585,165.316 213.5,167.5C 213.98,164.557 214.98,161.89 216.5,159.5 Z"/></g>
<g><path style="opacity:0.173" fill="#e0e0e0" d="M 230.5,162.5 C 231.931,163.78 232.598,165.447 232.5,167.5C 231.069,166.22 230.402,164.553 230.5,162.5 Z"/></g>
<g><path style="opacity:0.154" fill="#ececec" d="M 41.5,147.5 C 41.5,154.833 41.5,162.167 41.5,169.5C 45.5546,169.824 49.5546,169.491 53.5,168.5C 50.5719,167.516 47.5719,167.183 44.5,167.5C 44.5,165.167 44.5,162.833 44.5,160.5C 47.1667,160.5 49.8333,160.5 52.5,160.5C 52.5,159.5 52.5,158.5 52.5,157.5C 49.8333,157.5 47.1667,157.5 44.5,157.5C 44.5,155.167 44.5,152.833 44.5,150.5C 47.5,150.5 50.5,150.5 53.5,150.5C 53.5,149.5 53.5,148.5 53.5,147.5C 54.4345,148.568 54.7678,149.901 54.5,151.5C 51.5,151.5 48.5,151.5 45.5,151.5C 45.5,153.167 45.5,154.833 45.5,156.5C 48.1667,156.5 50.8333,156.5 53.5,156.5C 53.5,158.167 53.5,159.833 53.5,161.5C 50.8333,161.5 48.1667,161.5 45.5,161.5C 45.5,163.167 45.5,164.833 45.5,166.5C 48.5,166.5 51.5,166.5 54.5,166.5C 54.5,167.833 54.5,169.167 54.5,170.5C 49.8333,170.5 45.1667,170.5 40.5,170.5C 40.1746,162.648 40.508,154.982 41.5,147.5 Z"/></g>
<g><path style="opacity:0.004" fill="#ebebeb" d="M 12.5,166.5 C 13.5,166.833 14.1667,167.5 14.5,168.5C 13.1667,168.5 12.5,167.833 12.5,166.5 Z"/></g>
<g><path style="opacity:0.004" fill="#e4e4e4" d="M 76.5,166.5 C 77.9063,166.973 78.573,167.973 78.5,169.5C 77.0937,169.027 76.427,168.027 76.5,166.5 Z"/></g>
<g><path style="opacity:0.988" fill="#303030" d="M 28.5,149.5 C 29.5,149.833 30.1667,150.5 30.5,151.5C 30.3678,154.007 29.3678,154.674 27.5,153.5C 26.8333,153.5 26.5,153.167 26.5,152.5C 26.3893,151.883 26.056,151.383 25.5,151C 22.8333,150.333 20.1667,150.333 17.5,151C 16.944,151.383 16.6107,151.883 16.5,152.5C 16.1667,153.5 15.5,154.167 14.5,154.5C 13.3622,157.304 13.1955,160.304 14,163.5C 14.3826,164.056 14.8826,164.389 15.5,164.5C 16.6068,166.931 18.6068,167.931 21.5,167.5C 22.8333,167.333 24.1667,167.167 25.5,167C 26.056,166.617 26.3893,166.117 26.5,165.5C 26.5,164.833 26.8333,164.5 27.5,164.5C 29.0481,164.821 29.7148,165.821 29.5,167.5C 29.0269,168.906 28.0269,169.573 26.5,169.5C 23.1667,169.5 19.8333,169.5 16.5,169.5C 15.5084,169.672 14.8417,169.338 14.5,168.5C 14.1667,167.5 13.5,166.833 12.5,166.5C 12.3404,164.847 11.6737,163.514 10.5,162.5C 9.23293,159.939 9.23293,157.272 10.5,154.5C 11.9063,154.027 12.573,153.027 12.5,151.5C 12.5,150.167 13.1667,149.5 14.5,149.5C 16.8157,148.84 19.149,148.173 21.5,147.5C 23.851,148.173 26.1843,148.84 28.5,149.5 Z"/></g>
<g><path style="opacity:0.085" fill="#e3e3e3" d="M 15.5,164.5 C 18.9788,166.69 22.6454,167.023 26.5,165.5C 26.3893,166.117 26.056,166.617 25.5,167C 24.1667,167.167 22.8333,167.333 21.5,167.5C 18.6068,167.931 16.6068,166.931 15.5,164.5 Z"/></g>
<g><path style="opacity:0.086" fill="#e8e8e8" d="M 26.5,152.5 C 23.1667,151.167 19.8333,151.167 16.5,152.5C 16.6107,151.883 16.944,151.383 17.5,151C 20.1667,150.333 22.8333,150.333 25.5,151C 26.056,151.383 26.3893,151.883 26.5,152.5 Z"/></g>
<g><path style="opacity:0.833" fill="#a0a0a0" d="M 16.5,169.5 C 19.8333,169.5 23.1667,169.5 26.5,169.5C 23.1667,172.167 19.8333,172.167 16.5,169.5 Z"/></g>
<g><path style="opacity:0.631" fill="#bebebe" d="M 213.5,167.5 C 213.821,169.048 214.821,169.715 216.5,169.5C 215.432,170.434 214.099,170.768 212.5,170.5C 212.263,169.209 212.596,168.209 213.5,167.5 Z"/></g>
<g><path style="opacity:0.627" fill="#bfbfbf" d="M 232.5,167.5 C 233.404,168.209 233.737,169.209 233.5,170.5C 231.901,170.768 230.568,170.434 229.5,169.5C 231.179,169.715 232.179,169.048 232.5,167.5 Z"/></g>
<g><path style="opacity:0.105" fill="#fafafa" d="M 57.5,177.5 C 56.1667,177.5 54.8333,177.5 53.5,177.5C 51.1667,177.5 48.8333,177.5 46.5,177.5C 46.5,184.167 46.5,190.833 46.5,197.5C 50.1667,197.5 53.8333,197.5 57.5,197.5C 53.7016,198.483 49.7016,198.817 45.5,198.5C 45.5,191.167 45.5,183.833 45.5,176.5C 49.7016,176.183 53.7016,176.517 57.5,177.5 Z"/></g>
<g><path style="opacity:0.079" fill="#cfcfcf" d="M 198.5,178.5 C 195.191,177.373 191.857,177.373 188.5,178.5C 191.833,175.833 195.167,175.833 198.5,178.5 Z"/></g>
<g><path style="opacity:0.053" fill="#ececec" d="M 14.5,181.5 C 13.7515,180.469 13.0848,179.302 12.5,178C 11.184,177.472 10.5173,177.972 10.5,179.5C 9.59603,178.791 9.26269,177.791 9.5,176.5C 13.5,175.833 15.1667,177.5 14.5,181.5 Z"/></g>
<g><path style="opacity:0.318" fill="#d1d1d1" d="M 74.5,177.5 C 76.3904,177.297 77.8904,177.963 79,179.5C 79.7218,182.261 79.5552,184.927 78.5,187.5C 78.2927,185.396 78.126,183.063 78,180.5C 76.8549,179.364 75.6883,178.364 74.5,177.5 Z"/></g>
<g><path style="opacity:0.31" fill="#cfcfcf" d="M 156.5,177.5 C 160.314,177.651 161.981,179.651 161.5,183.5C 159.011,183.759 157.344,182.759 156.5,180.5C 157.735,180.721 158.735,181.388 159.5,182.5C 159.833,182.167 160.167,181.833 160.5,181.5C 159.451,179.784 158.118,178.451 156.5,177.5 Z"/></g>
<g><path style="opacity:0.225" fill="#f5f5f5" d="M 111.5,177.5 C 108.5,177.5 105.5,177.5 102.5,177.5C 102.5,184.167 102.5,190.833 102.5,197.5C 105.833,197.5 109.167,197.5 112.5,197.5C 109.038,198.482 105.371,198.815 101.5,198.5C 101.5,191.167 101.5,183.833 101.5,176.5C 105.042,176.187 108.375,176.521 111.5,177.5 Z"/></g>
<g><path style="opacity:0.082" fill="#c9c9c9" d="M 113.5,178.5 C 115.833,178.833 117.167,180.167 117.5,182.5C 115.833,181.5 114.5,180.167 113.5,178.5 Z"/></g>
<g><path style="opacity:0.929" fill="#3f3f3f" d="M 156.5,177.5 C 158.118,178.451 159.451,179.784 160.5,181.5C 160.167,181.833 159.833,182.167 159.5,182.5C 158.735,181.388 157.735,180.721 156.5,180.5C 154.379,180.325 152.379,180.659 150.5,181.5C 149.209,182.542 149.209,183.708 150.5,185C 152.345,186.128 154.345,186.628 156.5,186.5C 156.611,187.117 156.944,187.617 157.5,188C 155.866,188.494 154.199,188.66 152.5,188.5C 151.486,187.326 150.153,186.66 148.5,186.5C 147.85,184.565 147.517,182.565 147.5,180.5C 149.693,176.897 152.693,175.897 156.5,177.5 Z"/></g>
<g><path style="opacity:0.698" fill="#a0a0a0" d="M 226.5,177.5 C 227.209,176.596 228.209,176.263 229.5,176.5C 229.5,183.833 229.5,191.167 229.5,198.5C 227.901,198.768 226.568,198.434 225.5,197.5C 226.5,197.5 227.5,197.5 228.5,197.5C 229.126,190.416 228.459,183.75 226.5,177.5 Z"/></g>
<g><path style="opacity:0.937" fill="#1a1a1a" d="M 250.5,178.5 C 253.128,182.539 252.461,183.206 248.5,180.5C 246.708,179.691 244.708,179.191 242.5,179C 243.263,178.056 244.263,177.556 245.5,177.5C 247.135,178.046 248.801,178.38 250.5,178.5 Z"/></g>
<g><path style="opacity:0.614" fill="#959595" d="M 53.5,177.5 C 54.8333,177.5 56.1667,177.5 57.5,177.5C 58.7736,178.189 58.7736,179.023 57.5,180C 54.854,180.497 52.1873,180.664 49.5,180.5C 51.631,179.686 53.9644,179.186 56.5,179C 55.2625,178.768 54.2625,178.268 53.5,177.5 Z"/></g>
<g><path style="opacity:0.984" fill="#1e1e1e" d="M 74.5,177.5 C 75.6883,178.364 76.8549,179.364 78,180.5C 78.126,183.063 78.2927,185.396 78.5,187.5C 79.1667,187.5 79.5,187.833 79.5,188.5C 80.1495,190.435 80.4828,192.435 80.5,194.5C 76.6492,197.161 72.3159,198.161 67.5,197.5C 67.5,190.833 67.5,184.167 67.5,177.5C 69.8333,177.5 72.1667,177.5 74.5,177.5 Z M 74.5,180.5 C 76.2683,184.411 74.935,186.078 70.5,185.5C 70.5,183.833 70.5,182.167 70.5,180.5C 71.8333,180.5 73.1667,180.5 74.5,180.5 Z M 76.5,189.5 C 77.8333,191.167 77.8333,192.833 76.5,194.5C 74.5,194.5 72.5,194.5 70.5,194.5C 70.5,192.833 70.5,191.167 70.5,189.5C 72.5,189.5 74.5,189.5 76.5,189.5 Z"/></g>
<g><path style="opacity:0.361" fill="#d2d2d2" d="M 197.5,181.5 C 193.726,179.943 190.392,180.61 187.5,183.5C 187.574,181.589 188.574,180.422 190.5,180C 192.5,179.333 194.5,179.333 196.5,180C 197.056,180.383 197.389,180.883 197.5,181.5 Z"/></g>
<g><path style="opacity:1" fill="#a8a8a8" d="M 250.5,178.5 C 248.801,178.38 247.135,178.046 245.5,177.5C 244.263,177.556 243.263,178.056 242.5,179C 244.708,179.191 246.708,179.691 248.5,180.5C 243.021,179.61 241.688,181.277 244.5,185.5C 243.504,185.586 242.671,185.252 242,184.5C 241.667,182.833 241.333,181.167 241,179.5C 240.617,180.056 240.117,180.389 239.5,180.5C 241.356,176.832 244.356,175.666 248.5,177C 249.416,177.278 250.082,177.778 250.5,178.5 Z"/></g>
<g><path style="opacity:0.049" fill="#d0d0d0" d="M 27.5,184.5 C 26.2616,182.786 25.595,180.786 25.5,178.5C 23.8007,178.527 22.4674,179.194 21.5,180.5C 21.1762,177.32 22.5096,176.153 25.5,177C 26.8672,179.301 27.5339,181.801 27.5,184.5 Z"/></g>
<g><path style="opacity:0.055" fill="#d2d2d2" d="M 36.5,182.5 C 36.762,181.022 36.4287,179.689 35.5,178.5C 34.4824,180.594 33.4824,182.594 32.5,184.5C 32.4661,181.801 33.1328,179.301 34.5,177C 36.3185,176.217 37.6518,176.717 38.5,178.5C 38.0057,180.026 37.339,181.359 36.5,182.5 Z"/></g>
<g><path style="opacity:0.167" fill="#e4e4e4" d="M 74.5,180.5 C 75.6491,180.791 76.3158,181.624 76.5,183C 76.3333,183.833 76.1667,184.667 76,185.5C 73.9592,186.423 71.7925,186.756 69.5,186.5C 69.5,184.167 69.5,181.833 69.5,179.5C 71.4147,179.216 73.0813,179.549 74.5,180.5 Z M 74.5,180.5 C 73.1667,180.5 71.8333,180.5 70.5,180.5C 70.5,182.167 70.5,183.833 70.5,185.5C 74.935,186.078 76.2683,184.411 74.5,180.5 Z"/></g>
<g><path style="opacity:0.452" fill="#d7d7d7" d="M 170.5,176.5 C 171.833,176.5 173.167,176.5 174.5,176.5C 174.5,183.833 174.5,191.167 174.5,198.5C 173.167,198.5 171.833,198.5 170.5,198.5C 170.5,191.167 170.5,183.833 170.5,176.5 Z"/></g>
<g><path style="opacity:0.981" fill="#0f0f0f" d="M 171.5,177.5 C 172.82,180.428 173.486,183.761 173.5,187.5C 173.167,190.833 172.833,194.167 172.5,197.5C 171.503,190.866 171.17,184.2 171.5,177.5 Z"/></g>
<g><path style="opacity:0.722" fill="#afafaf" d="M 188.5,178.5 C 187.5,180.167 186.167,181.5 184.5,182.5C 184.833,180.167 186.167,178.833 188.5,178.5 Z"/></g>
<g><path style="opacity:0.082" fill="#d5d5d5" d="M 10.5,179.5 C 13.0819,185.151 14.7485,191.151 15.5,197.5C 13.0561,191.819 11.3894,185.819 10.5,179.5 Z"/></g>
<g><path style="opacity:0.188" fill="#ededed" d="M 147.5,180.5 C 147.517,182.565 147.85,184.565 148.5,186.5C 147.053,185.866 146.387,184.699 146.5,183C 146.528,181.93 146.861,181.097 147.5,180.5 Z"/></g>
<g><path style="opacity:0.718" fill="#c0c0c0" d="M 197.5,181.5 C 198.833,181.833 200.167,182.167 201.5,182.5C 199.872,183.853 198.538,183.519 197.5,181.5 Z"/></g>
<g><path style="opacity:0.333" fill="#cccccc" d="M 200.5,179.5 C 202.382,180.221 202.715,181.221 201.5,182.5C 200.89,181.609 200.557,180.609 200.5,179.5 Z"/></g>
<g><path style="opacity:0.614" fill="#b2b2b2" d="M 217.5,179.5 C 216.518,178.859 215.518,178.193 214.5,177.5C 213.503,184.134 213.17,190.8 213.5,197.5C 213.167,197.5 212.833,197.5 212.5,197.5C 212.5,190.5 212.5,183.5 212.5,176.5C 215.285,175.916 216.952,176.916 217.5,179.5 Z"/></g>
<g><path style="opacity:0.979" fill="#202020" d="M 111.5,177.5 C 112.492,177.328 113.158,177.662 113.5,178.5C 114.5,180.167 115.833,181.5 117.5,182.5C 117.693,186.566 117.36,190.566 116.5,194.5C 115.738,196.262 114.404,197.262 112.5,197.5C 109.167,197.5 105.833,197.5 102.5,197.5C 102.5,190.833 102.5,184.167 102.5,177.5C 105.5,177.5 108.5,177.5 111.5,177.5 Z M 105.5,180.5 C 107.806,180.993 110.139,181.326 112.5,181.5C 114.181,184.582 114.848,187.915 114.5,191.5C 113.167,192.167 112.167,193.167 111.5,194.5C 109.5,194.5 107.5,194.5 105.5,194.5C 105.5,189.833 105.5,185.167 105.5,180.5 Z"/></g>
<g><path style="opacity:0.025" fill="#d5d5d5" d="M 105.5,180.5 C 108.012,179.133 110.345,179.466 112.5,181.5C 110.139,181.326 107.806,180.993 105.5,180.5 Z"/></g>
<g><path style="opacity:0.555" fill="#bbbbbb" d="M 105.5,180.5 C 105.5,185.167 105.5,189.833 105.5,194.5C 107.5,194.5 109.5,194.5 111.5,194.5C 109.393,195.468 107.059,195.802 104.5,195.5C 104.179,190.305 104.513,185.305 105.5,180.5 Z"/></g>
<g><path style="opacity:0.047" fill="#dbdbdb" d="M 250.5,178.5 C 253.084,179.048 254.084,180.715 253.5,183.5C 251.011,183.759 249.344,182.759 248.5,180.5C 252.461,183.206 253.128,182.539 250.5,178.5 Z"/></g>
<g><path style="opacity:0.031" fill="#dadada" d="M 36.5,182.5 C 35.8091,187.598 34.6425,192.598 33,197.5C 31.3005,198.406 29.4672,198.739 27.5,198.5C 27.0074,196.194 26.6741,193.861 26.5,191.5C 27.7384,193.214 28.405,195.214 28.5,197.5C 29.675,197.719 30.675,197.386 31.5,196.5C 33.1838,191.719 34.8505,187.052 36.5,182.5 Z"/></g>
<g><path style="opacity:0.082" fill="#efefef" d="M 49.5,185.5 C 52.1667,185.5 54.8333,185.5 57.5,185.5C 57.5,186.833 57.5,188.167 57.5,189.5C 54.8333,189.5 52.1667,189.5 49.5,189.5C 51.6979,188.835 54.0312,188.168 56.5,187.5C 54.0312,186.832 51.6979,186.165 49.5,185.5 Z"/></g>
<g><path style="opacity:0.678" fill="#7e7e7e" d="M 127.5,177.5 C 131.371,177.185 135.038,177.518 138.5,178.5C 135.167,178.5 131.833,178.5 128.5,178.5C 128.5,184.833 128.5,191.167 128.5,197.5C 128.167,197.5 127.833,197.5 127.5,197.5C 127.5,190.833 127.5,184.167 127.5,177.5 Z"/></g>
<g><path style="opacity:0.081" fill="#e9e9e9" d="M 127.5,177.5 C 131.298,176.517 135.298,176.183 139.5,176.5C 139.5,177.833 139.5,179.167 139.5,180.5C 136.833,180.5 134.167,180.5 131.5,180.5C 131.5,182.167 131.5,183.833 131.5,185.5C 133.833,185.5 136.167,185.5 138.5,185.5C 138.5,186.833 138.5,188.167 138.5,189.5C 136.167,189.5 133.833,189.5 131.5,189.5C 131.5,191.167 131.5,192.833 131.5,194.5C 134.167,194.5 136.833,194.5 139.5,194.5C 139.5,195.833 139.5,197.167 139.5,198.5C 135.298,198.817 131.298,198.483 127.5,197.5C 127.833,197.5 128.167,197.5 128.5,197.5C 131.898,197.82 135.232,197.487 138.5,196.5C 135.914,195.52 133.247,195.187 130.5,195.5C 130.5,193.167 130.5,190.833 130.5,188.5C 139.833,187.833 139.833,187.167 130.5,186.5C 130.5,184.167 130.5,181.833 130.5,179.5C 133.385,179.806 136.052,179.473 138.5,178.5C 135.038,177.518 131.371,177.185 127.5,177.5 Z"/></g>
<g><path style="opacity:0.424" fill="#cccccc" d="M 150.5,181.5 C 150.414,182.496 150.748,183.329 151.5,184C 153.315,184.757 154.981,185.59 156.5,186.5C 154.345,186.628 152.345,186.128 150.5,185C 149.209,183.708 149.209,182.542 150.5,181.5 Z"/></g>
<g><path style="opacity:0.827" fill="#b1b1b1" d="M 184.5,182.5 C 184.326,184.861 183.993,187.194 183.5,189.5C 182.355,187.047 182.688,184.713 184.5,182.5 Z"/></g>
<g><path style="opacity:0.229" fill="#d5d5d5" d="M 112.5,181.5 C 113.75,181.577 114.583,182.244 115,183.5C 115.801,186.367 115.634,189.034 114.5,191.5C 114.848,187.915 114.181,184.582 112.5,181.5 Z"/></g>
<g><path style="opacity:0.647" fill="#c4c4c4" d="M 117.5,182.5 C 118.643,185.976 118.81,189.642 118,193.5C 117.617,194.056 117.117,194.389 116.5,194.5C 117.36,190.566 117.693,186.566 117.5,182.5 Z"/></g>
<g><path style="opacity:0.004" fill="#efefef" d="M 239.5,185.5 C 240.5,185.833 241.167,186.5 241.5,187.5C 240.167,187.5 239.5,186.833 239.5,185.5 Z"/></g>
<g><path style="opacity:1" fill="#494949" d="M 244.5,185.5 C 246.102,187.074 248.102,187.741 250.5,187.5C 252.681,190.263 253.015,193.263 251.5,196.5C 251.389,197.117 251.056,197.617 250.5,198C 247.633,198.801 244.966,198.634 242.5,197.5C 242.027,196.094 241.027,195.427 239.5,195.5C 239.402,192.752 240.402,192.086 242.5,193.5C 243.152,194.725 244.319,195.392 246,195.5C 247.385,195.486 248.551,195.152 249.5,194.5C 249.762,193.022 249.429,191.689 248.5,190.5C 245.984,189.67 243.65,188.67 241.5,187.5C 241.167,186.5 240.5,185.833 239.5,185.5C 238.167,183.833 238.167,182.167 239.5,180.5C 240.117,180.389 240.617,180.056 241,179.5C 241.333,181.167 241.667,182.833 242,184.5C 242.671,185.252 243.504,185.586 244.5,185.5 Z"/></g>
<g><path style="opacity:0.769" fill="#9b9b9b" d="M 244.5,185.5 C 246.786,185.595 248.786,186.262 250.5,187.5C 248.102,187.741 246.102,187.074 244.5,185.5 Z"/></g>
<g><path style="opacity:0.227" fill="#d4d4d4" d="M 148.5,186.5 C 150.153,186.66 151.486,187.326 152.5,188.5C 150.62,188.771 149.287,188.104 148.5,186.5 Z"/></g>
<g><path style="opacity:1" fill="#373737" d="M 53.5,177.5 C 54.2625,178.268 55.2625,178.768 56.5,179C 53.9644,179.186 51.631,179.686 49.5,180.5C 49.5,182.167 49.5,183.833 49.5,185.5C 51.6979,186.165 54.0312,186.832 56.5,187.5C 54.0312,188.168 51.6979,188.835 49.5,189.5C 49.5,191.167 49.5,192.833 49.5,194.5C 52.1873,194.336 54.854,194.503 57.5,195C 58.7736,195.977 58.7736,196.811 57.5,197.5C 53.8333,197.5 50.1667,197.5 46.5,197.5C 46.5,190.833 46.5,184.167 46.5,177.5C 48.8333,177.5 51.1667,177.5 53.5,177.5 Z"/></g>
<g><path style="opacity:1" fill="#888888" d="M 156.5,186.5 C 158.153,186.66 159.486,187.326 160.5,188.5C 160.5,188.833 160.5,189.167 160.5,189.5C 158.242,189.775 157.908,190.775 159.5,192.5C 159.145,193.522 158.478,194.189 157.5,194.5C 157.762,193.022 157.429,191.689 156.5,190.5C 154.974,190.006 153.641,189.339 152.5,188.5C 154.199,188.66 155.866,188.494 157.5,188C 156.944,187.617 156.611,187.117 156.5,186.5 Z"/></g>
<g><path style="opacity:1" fill="#383838" d="M 198.5,178.5 C 199.492,178.328 200.158,178.662 200.5,179.5C 200.557,180.609 200.89,181.609 201.5,182.5C 200.167,182.167 198.833,181.833 197.5,181.5C 197.389,180.883 197.056,180.383 196.5,180C 194.5,179.333 192.5,179.333 190.5,180C 188.574,180.422 187.574,181.589 187.5,183.5C 187.5,186.167 187.5,188.833 187.5,191.5C 187.5,193.5 188.5,194.5 190.5,194.5C 191.449,195.152 192.615,195.486 194,195.5C 196.008,195.693 197.508,195.026 198.5,193.5C 198.328,192.508 198.662,191.842 199.5,191.5C 200.043,191.44 200.376,191.107 200.5,190.5C 197.705,190.062 195.372,189.062 193.5,187.5C 196.5,187.5 199.5,187.5 202.5,187.5C 202.665,190.85 202.498,194.183 202,197.5C 200.794,193.815 199.294,193.815 197.5,197.5C 195.034,198.634 192.367,198.801 189.5,198C 187.676,197.34 186.343,196.173 185.5,194.5C 185.34,192.847 184.674,191.514 183.5,190.5C 183.5,190.167 183.5,189.833 183.5,189.5C 183.993,187.194 184.326,184.861 184.5,182.5C 186.167,181.5 187.5,180.167 188.5,178.5C 191.857,177.373 195.191,177.373 198.5,178.5 Z"/></g>
<g><path style="opacity:0.168" fill="#f0f0f0" d="M 76.5,189.5 C 74.5,189.5 72.5,189.5 70.5,189.5C 70.5,191.167 70.5,192.833 70.5,194.5C 72.5,194.5 74.5,194.5 76.5,194.5C 74.3926,195.468 72.0593,195.802 69.5,195.5C 69.5,193.167 69.5,190.833 69.5,188.5C 72.0593,188.198 74.3926,188.532 76.5,189.5 Z"/></g>
<g><path style="opacity:0.053" fill="#ececec" d="M 79.5,188.5 C 80.9468,189.134 81.6134,190.301 81.5,192C 81.472,193.07 81.1386,193.903 80.5,194.5C 80.4828,192.435 80.1495,190.435 79.5,188.5 Z"/></g>
<g><path style="opacity:0.063" fill="#e9e9e9" d="M 160.5,188.5 C 161.947,189.134 162.613,190.301 162.5,192C 162.472,193.07 162.139,193.903 161.5,194.5C 161.634,192.708 161.301,191.042 160.5,189.5C 160.5,189.167 160.5,188.833 160.5,188.5 Z"/></g>
<g><path style="opacity:0.199" fill="#eeeeee" d="M 193.5,187.5 C 195.372,189.062 197.705,190.062 200.5,190.5C 200.376,191.107 200.043,191.44 199.5,191.5C 197.393,190.532 195.059,190.198 192.5,190.5C 192.263,189.209 192.596,188.209 193.5,187.5 Z"/></g>
<g><path style="opacity:0.425" fill="#dadada" d="M 193.5,187.5 C 196.625,186.521 199.958,186.187 203.5,186.5C 203.5,190.5 203.5,194.5 203.5,198.5C 201.435,198.483 199.435,198.15 197.5,197.5C 199.294,193.815 200.794,193.815 202,197.5C 202.498,194.183 202.665,190.85 202.5,187.5C 199.5,187.5 196.5,187.5 193.5,187.5 Z"/></g>
<g><path style="opacity:0.997" fill="#131313" d="M 138.5,178.5 C 136.052,179.473 133.385,179.806 130.5,179.5C 130.5,181.833 130.5,184.167 130.5,186.5C 139.833,187.167 139.833,187.833 130.5,188.5C 130.5,190.833 130.5,193.167 130.5,195.5C 133.247,195.187 135.914,195.52 138.5,196.5C 135.232,197.487 131.898,197.82 128.5,197.5C 128.5,191.167 128.5,184.833 128.5,178.5C 131.833,178.5 135.167,178.5 138.5,178.5 Z"/></g>
<g><path style="opacity:0.251" fill="#e2e2e2" d="M 150.5,193.5 C 148.402,192.086 147.402,192.752 147.5,195.5C 146.566,194.432 146.232,193.099 146.5,191.5C 148.483,191.157 149.817,191.824 150.5,193.5 Z"/></g>
<g><path style="opacity:0.263" fill="#d5d5d5" d="M 183.5,190.5 C 184.674,191.514 185.34,192.847 185.5,194.5C 183.896,193.713 183.229,192.38 183.5,190.5 Z"/></g>
<g><path style="opacity:0.127" fill="#f7f7f7" d="M 218.5,186.5 C 217.883,186.389 217.383,186.056 217,185.5C 216.501,189.821 216.334,194.154 216.5,198.5C 214.901,198.768 213.568,198.434 212.5,197.5C 212.833,197.5 213.167,197.5 213.5,197.5C 215.285,192.933 216.118,187.933 216,182.5C 217.481,183.471 218.315,184.804 218.5,186.5 Z"/></g>
<g><path style="opacity:0.871" fill="#a8a8a8" d="M 250.5,187.5 C 252.99,188.108 254.324,189.775 254.5,192.5C 254.439,194.653 253.439,195.986 251.5,196.5C 253.015,193.263 252.681,190.263 250.5,187.5 Z"/></g>
<g><path style="opacity:0.498" fill="#dedede" d="M 187.5,191.5 C 188.833,192.167 189.833,193.167 190.5,194.5C 188.5,194.5 187.5,193.5 187.5,191.5 Z"/></g>
<g><path style="opacity:0.631" fill="#c0c0c0" d="M 114.5,191.5 C 114.5,193.5 113.5,194.5 111.5,194.5C 112.167,193.167 113.167,192.167 114.5,191.5 Z"/></g>
<g><path style="opacity:0.984" fill="#222222" d="M 217.5,179.5 C 217.427,181.027 218.094,182.027 219.5,182.5C 219.427,184.027 220.094,185.027 221.5,185.5C 222.338,185.842 222.672,186.508 222.5,187.5C 222.427,189.027 223.094,190.027 224.5,190.5C 224.783,191.289 225.283,191.956 226,192.5C 226.499,187.511 226.666,182.511 226.5,177.5C 228.459,183.75 229.126,190.416 228.5,197.5C 227.5,197.5 226.5,197.5 225.5,197.5C 224.662,197.158 224.328,196.492 224.5,195.5C 224.573,193.973 223.906,192.973 222.5,192.5C 222.573,190.973 221.906,189.973 220.5,189.5C 220.573,187.973 219.906,186.973 218.5,186.5C 218.315,184.804 217.481,183.471 216,182.5C 216.118,187.933 215.285,192.933 213.5,197.5C 213.17,190.8 213.503,184.134 214.5,177.5C 215.518,178.193 216.518,178.859 217.5,179.5 Z"/></g>
<g><path style="opacity:0.024" fill="#dcdcdc" d="M 222.5,192.5 C 223.906,192.973 224.573,193.973 224.5,195.5C 223.094,195.027 222.427,194.027 222.5,192.5 Z"/></g>
<g><path style="opacity:0.027" fill="#dedede" d="M 220.5,189.5 C 221.906,189.973 222.573,190.973 222.5,192.5C 221.094,192.027 220.427,191.027 220.5,189.5 Z"/></g>
<g><path style="opacity:0.537" fill="#b8b8b8" d="M 222.5,187.5 C 223.906,187.973 224.573,188.973 224.5,190.5C 223.094,190.027 222.427,189.027 222.5,187.5 Z"/></g>
<g><path style="opacity:0.016" fill="#e0e0e0" d="M 218.5,186.5 C 219.906,186.973 220.573,187.973 220.5,189.5C 219.094,189.027 218.427,188.027 218.5,186.5 Z"/></g>
<g><path style="opacity:0.298" fill="#e2e2e2" d="M 219.5,182.5 C 220.906,182.973 221.573,183.973 221.5,185.5C 220.094,185.027 219.427,184.027 219.5,182.5 Z"/></g>
<g><path style="opacity:0.306" fill="#e0e0e0" d="M 217.5,179.5 C 218.906,179.973 219.573,180.973 219.5,182.5C 218.094,182.027 217.427,181.027 217.5,179.5 Z"/></g>
<g><path style="opacity:0.158" fill="#f8f8f8" d="M 226.5,177.5 C 226.666,182.511 226.499,187.511 226,192.5C 225.283,191.956 224.783,191.289 224.5,190.5C 225.167,186.167 225.833,181.833 226.5,177.5 Z"/></g>
<g><path style="opacity:0.573" fill="#d4d4d4" d="M 242.5,193.5 C 240.402,192.086 239.402,192.752 239.5,195.5C 236.767,193.603 237.1,192.27 240.5,191.5C 241.713,191.747 242.38,192.414 242.5,193.5 Z"/></g>
<g><path style="opacity:0.966" fill="#222222" d="M 14.5,181.5 C 14.8764,185.966 15.8764,190.299 17.5,194.5C 19.1713,192.49 19.838,190.157 19.5,187.5C 21.1628,185.562 21.8294,183.228 21.5,180.5C 22.4674,179.194 23.8007,178.527 25.5,178.5C 25.595,180.786 26.2616,182.786 27.5,184.5C 27.1706,187.228 27.8372,189.562 29.5,191.5C 29.8333,191.5 30.1667,191.5 30.5,191.5C 31.9238,189.485 32.5905,187.152 32.5,184.5C 33.4824,182.594 34.4824,180.594 35.5,178.5C 36.4287,179.689 36.762,181.022 36.5,182.5C 34.8505,187.052 33.1838,191.719 31.5,196.5C 30.675,197.386 29.675,197.719 28.5,197.5C 28.405,195.214 27.7384,193.214 26.5,191.5C 26.5646,188.529 25.7313,185.862 24,183.5C 21.9359,186.86 20.7692,190.526 20.5,194.5C 20.3427,198.273 18.676,199.273 15.5,197.5C 14.7485,191.151 13.0819,185.151 10.5,179.5C 10.5173,177.972 11.184,177.472 12.5,178C 13.0848,179.302 13.7515,180.469 14.5,181.5 Z"/></g>
<g><path style="opacity:0.898" fill="#7d7d7d" d="M 14.5,181.5 C 15.9558,184.614 17.1225,187.948 18,191.5C 18.21,189.942 18.71,188.609 19.5,187.5C 19.838,190.157 19.1713,192.49 17.5,194.5C 15.8764,190.299 14.8764,185.966 14.5,181.5 Z"/></g>
<g><path style="opacity:0.153" fill="#bbbbbb" d="M 27.5,184.5 C 28.9238,186.515 29.5905,188.848 29.5,191.5C 27.8372,189.562 27.1706,187.228 27.5,184.5 Z"/></g>
<g><path style="opacity:0.033" fill="#e9e9e9" d="M 32.5,184.5 C 32.5905,187.152 31.9238,189.485 30.5,191.5C 30.4095,188.848 31.0762,186.515 32.5,184.5 Z"/></g>
<g><path style="opacity:0.392" fill="#d0d0d0" d="M 26.5,191.5 C 25.3995,189.723 24.5662,187.723 24,185.5C 23.0997,188.718 21.933,191.718 20.5,194.5C 20.7692,190.526 21.9359,186.86 24,183.5C 25.7313,185.862 26.5646,188.529 26.5,191.5 Z"/></g>
<g><path style="opacity:0.886" fill="#a9a9a9" d="M 21.5,180.5 C 21.8294,183.228 21.1628,185.562 19.5,187.5C 19.4095,184.848 20.0762,182.515 21.5,180.5 Z"/></g>
<g><path style="opacity:0.163" fill="#e1e1e1" d="M 198.5,193.5 C 197.508,195.026 196.008,195.693 194,195.5C 192.615,195.486 191.449,195.152 190.5,194.5C 193.237,194.599 195.904,194.265 198.5,193.5 Z"/></g>
<g><path style="opacity:0.078" fill="#e6e6e6" d="M 242.5,193.5 C 244.717,194.369 247.05,194.702 249.5,194.5C 248.551,195.152 247.385,195.486 246,195.5C 244.319,195.392 243.152,194.725 242.5,193.5 Z"/></g>
<g><path style="opacity:1" fill="#4b4b4b" d="M 160.5,189.5 C 161.301,191.042 161.634,192.708 161.5,194.5C 160.167,195.167 159.167,196.167 158.5,197.5C 155.833,198.833 153.167,198.833 150.5,197.5C 150.027,196.094 149.027,195.427 147.5,195.5C 147.402,192.752 148.402,192.086 150.5,193.5C 152.717,194.369 155.05,194.702 157.5,194.5C 158.478,194.189 159.145,193.522 159.5,192.5C 157.908,190.775 158.242,189.775 160.5,189.5 Z"/></g>
<g><path style="opacity:0.525" fill="#bababa" d="M 147.5,195.5 C 149.027,195.427 150.027,196.094 150.5,197.5C 148.973,197.573 147.973,196.906 147.5,195.5 Z"/></g>
<g><path style="opacity:0.031" fill="#e3e3e3" d="M 161.5,194.5 C 161.5,196.5 160.5,197.5 158.5,197.5C 159.167,196.167 160.167,195.167 161.5,194.5 Z"/></g>
<g><path style="opacity:0.58" fill="#a9a9a9" d="M 239.5,195.5 C 241.027,195.427 242.027,196.094 242.5,197.5C 240.973,197.573 239.973,196.906 239.5,195.5 Z"/></g>
<g><path style="opacity:0.207" fill="#dedede" d="M 74.5,177.5 C 72.1667,177.5 69.8333,177.5 67.5,177.5C 67.5,184.167 67.5,190.833 67.5,197.5C 72.3159,198.161 76.6492,197.161 80.5,194.5C 80.4257,196.411 79.4257,197.578 77.5,198C 73.8484,198.499 70.1817,198.665 66.5,198.5C 66.5,191.167 66.5,183.833 66.5,176.5C 69.3854,176.194 72.0521,176.527 74.5,177.5 Z"/></g>
<g><path style="opacity:0.02" fill="#d0d0d0" d="M 9.5,218.5 C 91.1667,218.5 172.833,218.5 254.5,218.5C 254.5,220.5 254.5,222.5 254.5,224.5C 172.833,224.5 91.1667,224.5 9.5,224.5C 9.5,222.5 9.5,220.5 9.5,218.5 Z"/></g>
<g><path style="opacity:1" fill="#090909" d="M 10.5,220.5 C 91.5027,220.167 172.503,220.5 253.5,221.5C 213,221.833 172.5,222.167 132,222.5C 91.1611,222.5 50.6611,221.833 10.5,220.5 Z"/></g>
</svg>
