<svg xmlns="http://www.w3.org/2000/svg" width="41" height="41" fill="none"><g clip-path="url(#a)"><path fill="#1C3F60" d="m39.719 29.328-9.61-9.61 9.22-9.218a3.725 3.725 0 0 0 0-5.313l-3.517-3.515A3.499 3.499 0 0 0 33.157.5c-.937 0-1.875.39-2.656 1.172l-9.219 9.219-9.61-9.61C11.204.813 10.579.5 9.954.5s-1.25.313-1.719.781l-7.03 6.953c-1.016 1.016-1.016 2.579 0 3.516l9.608 9.61-8.828 8.828L.5 38.624c-.234 1.172.86 2.11 1.875 1.875l8.438-1.484 8.828-8.828 9.609 9.609c.39.469 1.016.703 1.719.703.625 0 1.25-.234 1.718-.703l7.032-7.031a2.32 2.32 0 0 0 0-3.438ZM32.297 3.391c.312-.313 1.406-.313 1.797 0l3.515 3.515c.47.547.47 1.328 0 1.797l-3.593 3.594-5.313-5.313 3.594-3.593ZM2.922 10.03l7.031-6.953 4.375 4.297-3.047 3.125a.613.613 0 0 0 0 .86l.86.859a.613.613 0 0 0 .859 0l3.125-3.047 3.438 3.437-7.032 7.032-9.61-9.61Zm6.64 26.719-6.406 1.094 1.094-6.407L26.906 8.782l5.313 5.313L9.562 36.75Zm21.407 1.328-9.61-9.61 7.032-7.03 3.437 3.437L28.781 28a.613.613 0 0 0 0 .86l.86.859a.613.613 0 0 0 .859 0l3.125-3.047L38 31.047l-7.031 7.031Z"/></g><defs><clipPath id="a"><path fill="#fff" d="M.5.5h40v40H.5z"/></clipPath></defs></svg>
