<svg xmlns="http://www.w3.org/2000/svg" xmlns:xlink="http://www.w3.org/1999/xlink" viewBox="0,0,256,256" width="40px" height="40px"><g fill="#1c3f60" fill-rule="nonzero" stroke="none" stroke-width="1" stroke-linecap="butt" stroke-linejoin="miter" stroke-miterlimit="10" stroke-dasharray="" stroke-dashoffset="0" font-family="none" font-weight="none" font-size="none" text-anchor="none" style="mix-blend-mode: normal"><g transform="scale(10.66667,10.66667)"><path d="M20.36523,2.01172c-0.13967,-0.01528 -0.28419,-0.0145 -0.42969,0.00586c-2.17111,0.30515 -7.2154,1.13839 -12.21875,6.98242h-2.64258l-2.67578,2.78516c-0.372,0.372 -0.48325,0.92706 -0.28125,1.41406c0.201,0.487 0.67222,0.80078 1.19922,0.80078h2.26953l0.10352,0.10352c-0.27319,0.34448 -0.42767,0.70887 -0.58203,1.10938c-0.18804,0.48789 -0.34461,1.0191 -0.47461,1.51953c-0.26001,1.00086 -0.41406,1.89258 -0.41406,1.89258l-0.24805,1.4043l1.4043,-0.24805c0,0 0.89172,-0.15406 1.89258,-0.41406c0.50043,-0.13 1.03164,-0.28657 1.51953,-0.47461c0.4005,-0.15436 0.76489,-0.30884 1.10938,-0.58203l0.10352,0.10352v2.26953c0,0.527 0.31378,0.99922 0.80078,1.19922c0.165,0.069 0.33686,0.09961 0.50586,0.09961c0.331,0 0.651,-0.12266 0.875,-0.34766l2.81836,-2.56836v-2.7832c5.84403,-5.00335 6.67727,-10.04764 6.98242,-12.21875c0.14251,-1.01849 -0.63947,-1.94577 -1.61719,-2.05273zM19.95313,4.04688c-0.35721,2.54319 -1.16233,7.53495 -8.82812,12.66406l-3.83594,-3.83594c5.12912,-7.66579 10.12087,-8.47091 12.66406,-8.82812zM15,8c-0.55228,0 -1,0.44772 -1,1c0,0.55228 0.44772,1 1,1c0.55228,0 1,-0.44772 1,-1c0,-0.55228 -0.44772,-1 -1,-1zM12,11c-0.55228,0 -1,0.44772 -1,1c0,0.55228 0.44772,1 1,1c0.55228,0 1,-0.44772 1,-1c0,-0.55228 -0.44772,-1 -1,-1zM7.14844,15.5625l1.28906,1.28906c-0.10702,0.05665 -0.22203,0.11833 -0.37109,0.17578c-0.37489,0.14449 -0.84804,0.28422 -1.30273,0.40234c-0.13005,0.03379 -0.12362,0.02478 -0.24805,0.05469c0.02991,-0.12442 0.0209,-0.11799 0.05469,-0.24805c0.11812,-0.4547 0.25785,-0.92784 0.40234,-1.30273c0.05745,-0.14907 0.11913,-0.26408 0.17578,-0.37109z"></path></g></g></svg>