<svg xmlns="http://www.w3.org/2000/svg" width="40" height="41" fill="none"><g clip-path="url(#a)"><path fill="#1C3F60" d="m36.406 7.063-15-6.25A4.423 4.423 0 0 0 20 .578c-.547 0-1.016.078-1.484.235l-15 6.25C2.109 7.688 1.25 9.015 1.25 10.5c0 15.547 8.906 26.25 17.266 29.766.937.39 1.953.39 2.89 0C28.125 37.453 38.75 27.844 38.75 10.5c0-1.484-.938-2.813-2.344-3.438ZM20.47 37.922a1.16 1.16 0 0 1-1.016 0C11.875 34.875 3.75 24.25 3.75 10.5c0-.469.234-.938.703-1.094l15-6.25a1.159 1.159 0 0 1 1.016 0l15 6.25c.468.156.781.625.703 1.094.078 13.75-8.047 24.375-15.703 27.422Zm10.625-25.39a1.058 1.058 0 0 0-1.328 0L17.03 25.186l-5.39-5.39c-.391-.39-1.016-.39-1.329 0l-.703.625c-.39.39-.39.937 0 1.328l6.72 6.797c.39.312.937.312 1.327 0L31.72 14.562c.39-.39.39-.937 0-1.328l-.625-.703Z"/></g><defs><clipPath id="a"><path fill="#fff" d="M0 .5h40v40H0z"/></clipPath></defs></svg>
