<svg xmlns="http://www.w3.org/2000/svg" xmlns:xlink="http://www.w3.org/1999/xlink" viewBox="0,0,256,256" width="40px" height="40px"><g fill="#1c3f60" fill-rule="nonzero" stroke="none" stroke-width="1" stroke-linecap="butt" stroke-linejoin="miter" stroke-miterlimit="10" stroke-dasharray="" stroke-dashoffset="0" font-family="none" font-weight="none" font-size="none" text-anchor="none" style="mix-blend-mode: normal"><g transform="scale(10.66667,10.66667)"><path d="M5,3c-1.09306,0 -2,0.90694 -2,2v14c0,1.09306 0.90694,2 2,2h14c1.09306,0 2,-0.90694 2,-2v-14c0,-1.09306 -0.90694,-2 -2,-2zM5,5h14v4h-14zM7,6c-0.55228,0 -1,0.44772 -1,1c0,0.55228 0.44772,1 1,1c0.55228,0 1,-0.44772 1,-1c0,-0.55228 -0.44772,-1 -1,-1zM10,6c-0.55228,0 -1,0.44772 -1,1c0,0.55228 0.44772,1 1,1c0.55228,0 1,-0.44772 1,-1c0,-0.55228 -0.44772,-1 -1,-1zM13,6v2h4v-2zM5,11h3v8h-3zM10,11h9v8h-9zM12,12v2h5v-2zM12,15v2h5v-2z"></path></g></g></svg>